<?xml version="1.0" encoding="UTF-8"?>
<svg id="Layer_1" xmlns="http://www.w3.org/2000/svg" version="1.1" viewBox="0 0 80 80">
  <defs>
    <style>
      .st0 {
        fill: currentColor;
        fill-rule: evenodd;
      }
    </style>
  </defs>
  <g id="EGG-ANGEL">
    <path id="Vector" class="st0" d="M19.42,15c-.12.28-.24.56-.36.84-.17.49-.35.99-.52,1.48-.5,1.73-.99,5.24-.61,7.5.99,5.93,4.26,9.3,7.09,13.23,1.07,1.49,2.32,2.83,3.4,4.29.51.69,1.13,1.39,1.77,1.95.45.46.89.92,1.34,1.38.76.69,1.53,1.38,2.29,2.07,1.42,1.17,2.75,2.3,3.79,3.9,1.55,2.4,2.18,5.54,2.9,8.86.15,1.07.3,2.14.45,3.21.03.32.06.64.09.96h.02c.03-1.17.24-2.48.45-3.6.73-3.9,1.5-7.33,3.33-9.97,1.07-1.55,2.58-2.67,3.99-3.85.91-.86,1.83-1.73,2.74-2.59.36-.4.73-.79,1.09-1.19.97-1.06,1.91-2.15,2.76-3.33,1.37-1.88,2.88-3.64,4.22-5.58,1.65-2.38,3.32-4.76,4.19-8,.25-.93.24-1.87.39-2.99.1-.73.06-1.69-.05-2.39-.11-.9-.23-1.79-.34-2.69-.29-1.25-.68-2.37-1.16-3.41v-.02c.4.14,1.46,1.48,1.75,1.88,1.99,2.77,3.3,6.78,1.72,11.21-1.2,3.36-2.94,6.04-4.78,8.69-1.52,2.19-3.24,4.13-4.56,6.56-1.41,2.61-1.73,6.5-.5,9.6-6.84-1.92-11.59,3.91-13.51,8.64-.44,1.08-.86,2.19-1.27,3.33-.17.54-.33,1.09-.5,1.63h-.02c-.27-1.2-.72-2.34-1.13-3.41-1.54-3.97-3.52-7.12-6.8-9.21-1.86-1.18-4.68-1.72-7.32-.99,1.05-2.91,1.03-5.94-.09-8.74-.94-2.33-2.57-4.12-3.92-6.02-1.79-2.51-3.53-4.92-4.92-7.9-1.51-3.23-2.33-7.36-.59-11.11.82-1.76,1.96-2.99,3.17-4.25h0ZM18.6,15.02h.07l-.07.1c-.57.29-1.33,1.24-1.72,1.78-1.62,2.21-3.31,5.34-2.47,9.58.18.93.4,1.8.7,2.62,1.8,4.95,4.92,8.41,7.59,12.39,1.5,2.23,3.31,5.34,2.4,9.38-.27,1.2-.64,2.28-1.04,3.33.73-.32,1.45-.59,2.34-.79,2.22-.51,4.58.28,5.92,1.14,3.23,2.07,5.33,5.2,6.89,9.06.35.96.69,1.93,1.04,2.89-.24-.35-.48-.71-.72-1.06-.45-.67-1-1.27-1.54-1.85-1.49-1.62-3.06-2.69-5.37-3.68-1.44-.62-3.17-.96-5.12-.96h-1.11c-1.41.28-3.44.49-4.83.1-5.27-1.47-8.3-6.53-10.31-11.65-.52-1.32-.92-2.69-1.34-4.17-.13-.45-.46-1.32-.39-1.73.78.95,1.56,1.91,2.34,2.86.46.48.92.95,1.38,1.43.51.49,1.01.99,1.52,1.48.97.82,1.96,1.52,3.06,2.22.77.49,1.58.84,2.49,1.19.25.1.77.37,1.04.3-.29-.18-.58-.36-.86-.54-.67-.52-1.35-1.04-2.02-1.55-3.43-2.81-6.89-6.64-8.57-11.33-.3-.84-.41-1.71-.59-2.72-.27-1.55-.45-4.55-.18-6.29.1-.68-.09-1.47.14-2.05l.02.05c.27.9.54,1.79.82,2.69.81,2.25,1.76,4.44,3.33,5.87.5.45,1.39,1.43,2.08,1.58v-.07c-.5-.15-1.54-1.93-1.9-2.59-1.83-3.29-2.9-8.71-1.2-13.01.82-2.06,2.32-3.65,3.99-4.79.5-.29,1-.58,1.5-.86.23-.11.47-.21.7-.32h0ZM63.43,15.02c.74.23,1.43.69,2.04,1.09,2.48,1.62,4.09,3.78,4.9,7.23.11.49.08.96.16,1.51.12.79.08,1.84-.05,2.62-.14.88-.23,1.74-.45,2.54-.54,1.96-1.25,3.66-2.22,5.13-.37.56-.87.99-1.25,1.53.81-.29,1.46-1.02,2.06-1.55,1.73-1.55,2.61-3.91,3.49-6.39.25-.7.55-1.48.68-2.27h.05c.07,3.01.42,6.64-.2,9.38-.87,3.82-2.57,5.86-4.49,8.47-.63.85-1.39,1.68-2.18,2.37-1.21,1.06-2.34,2.19-3.65,3.19-.47.36-1,.88-1.59,1.09v.05h.02c2.49-.81,4.33-1.87,6.14-3.36.48-.45.97-.91,1.45-1.36.63-.55,1.33-1.2,1.84-1.88.79-.97,1.59-1.94,2.38-2.91h.02c-.15.63-.3,1.27-.45,1.9-.44,1.52-.86,2.93-1.4,4.29-1.73,4.33-4.36,8.75-8.18,10.59-.71.34-1.65.63-2.27.81-1,.31-2.5.16-3.47-.05-.38-.03-.76-.06-1.13-.1-.58,0-1.16.02-1.75.02-.42.03-.85.06-1.27.1-1.21.26-2.23.4-3.38.89-1.83.79-3.15,1.81-4.33,2.81-.31.26-1.54,1.4-1.66,1.65-.03.07-1.39,1.99-1.45,2.02.38-1.04.76-2.07,1.13-3.11,1.46-3.62,3.55-6.72,6.57-8.66,1.16-.74,3.53-1.72,5.6-1.33.55.11,1.1.23,1.66.34.4.17.8.35,1.2.52v-.02c-.39-.92-.71-1.93-.98-2.99-.76-3.02.1-5.92,1.2-7.87,1.26-2.23,2.82-4.06,4.24-6.1,1.35-1.94,2.59-3.91,3.65-6.17.55-1.18,1.07-2.46,1.4-3.88.15-.64.16-1.25.27-1.98.08-.51.11-1.28.02-1.83-.47-2.98-1.1-4.42-2.49-6.34-.43-.48-.86-.95-1.29-1.43-.19-.16-.5-.33-.61-.57h0ZM40.65,34.92c-3.55.13-7.93-.42-10.74-1.38-1.07-.36-2.16-.65-2.95-1.16-.85-.55-3.03-1.53-2.4-3.38.67-1.96,3.79-2.89,5.8-3.48,5.8-1.71,16.12-1.81,21.78.12,1.88.64,4.61,1.42,5.33,3.23.76,1.92-1.61,3.16-2.67,3.65-3.52,1.65-8.19,2.4-13.35,2.39.46,3.08,1.19,4.7,3.74,5.53.81.26,1.73.32,2.63.49,1.21.1,2.42.2,3.63.3v.02c-2.59.03-6.95.47-8.16,1.73-.8.83-1.25,1.81-1.59,3.16-.35,1.4-.24,2.89-.52,4.42-.08.45.05,1.56-.14,1.83-.05-.79-.11-1.58-.16-2.37-.05-.65-.09-1.3-.14-1.95-.37-1.89-.54-3.82-1.59-4.79-.71-.66-1.58-1.05-2.63-1.36-1.31-.38-2.81-.26-4.26-.57-.32-.07-1.44.03-1.59-.15,1.13.02,2.35-.08,3.4-.27,1.02-.19,1.97-.2,2.86-.49,2.3-.75,3.52-2.53,3.72-5.53h0ZM41.31,33.61c3.4.04,6.77-.27,9.41-1.16.58-.2,2.56-.84,2.02-1.83-.57-1.04-2.7-1.37-4.01-1.68-.99-.23-2.11-.26-3.17-.47-.54-.04-1.09-.08-1.63-.12-.71-.02-1.42-.03-2.13-.05h-1.5c-.71.02-1.42.05-2.13.07-.36.02-.73.03-1.09.05-1.07.19-2.2.19-3.2.42-1.33.31-4.3.68-4.6,1.95-.23.95,1.63,1.5,2.24,1.7,1.28.42,2.75.55,4.22.84.63.06,1.27.12,1.9.17,1.06.04,2.12.08,3.17.12.08-1.2.17-2.4.25-3.6h.02c.08,1.19.15,2.39.23,3.58h0Z"/>
  </g>
</svg>