<?xml version="1.0" encoding="UTF-8"?>
<svg id="Layer_1" xmlns="http://www.w3.org/2000/svg" version="1.1" viewBox="0 0 80 80">
  <defs>
    <style>
      .st0 {
        fill: currentColor;
      }
    </style>
  </defs>
  <g id="EGG-DMN">
    <g id="Group_7344">
      <g id="Layer_2-2">
        <path id="Vector" class="st0" d="M17.41,51.39c-.03-.5,0-.99.05-1.47.08-.82.18-1.63.32-2.43.06-.36.13-.72.23-1.07.06-.22-.02-.36-.23-.41-.5-.12-.97-.33-1.44-.57-1.14-.58-2.23-1.26-3.26-2.04-.55-.42-1.08-.85-1.58-1.34-.79-.77-1.47-1.65-2.08-2.59-.43-.67-.81-1.38-1.13-2.12-.34-.78-.63-1.57-.84-2.41-.16-.66-.28-1.32-.38-1.99-.06-.4-.1-.82-.07-1.23.05-.6.09-1.2.23-1.79.12-.52.19-1.06.3-1.59.17-.78.38-1.54.61-2.3.26-.87.56-1.72.92-2.54.39-.89.82-1.76,1.28-2.62.52-.96,1.08-1.88,1.64-2.8.45-.75.94-1.47,1.47-2.15.52-.66,1.07-1.3,1.73-1.8.12-.09.23-.19.38-.23.19-.05.32.07.28.28-.03.2-.07.4-.12.6-.21.76-.44,1.53-.65,2.29-.27.96-.57,1.91-.79,2.89-.17.76-.3,1.52-.41,2.29-.09.62-.15,1.24-.22,1.86-.02.17-.02.34-.02.51-.02.53-.06,1.06-.03,1.58.04.61.08,1.23.19,1.83.13.75.35,1.46.65,2.14.34.76.77,1.45,1.3,2.07.53.63,1.14,1.15,1.77,1.65.5.4,1.04.75,1.59,1.04.56.3,1.14.54,1.73.76.84.32,1.72.52,2.58.77.28.08.53.25.78.41.36.25.43.19.73-.06.56-.46,1.14-.91,1.7-1.37,1.02-.82,2.04-1.62,3.05-2.44.55-.44,1.1-.88,1.63-1.35.45-.4.9-.81,1.34-1.24.47-.45.96-.87,1.44-1.3.28-.25.54-.52.77-.83.16-.21.35-.38.51-.59.25-.31.41-.68.6-1.03.4-.75.67-1.56.94-2.38.39-1.22.74-2.45,1.01-3.7.18-.85.33-1.72.5-2.57.14-.71.29-1.43.4-2.14.1-.6.2-1.19.32-1.77.04-.2.09-.4.23-.56.08-.09.14-.09.22,0,.17.19.21.43.25.68.13.84.26,1.68.4,2.53.11.65.25,1.29.39,1.94.18.83.37,1.65.61,2.46.27.92.52,1.85.87,2.75.3.79.66,1.55,1.06,2.28.39.71.85,1.38,1.32,2.03.25.35.55.65.81.99.28.37.63.68.94,1.02.38.41.79.77,1.2,1.14.67.61,1.36,1.18,2.07,1.73.63.49,1.26.99,1.89,1.47.85.66,1.7,1.33,2.52,2.05.12.11.25.22.38.32.19.15.31.16.52-.05.27-.28.61-.37.95-.48.82-.25,1.66-.45,2.46-.78.42-.17.83-.36,1.23-.56.8-.4,1.55-.89,2.27-1.43.53-.39,1.02-.83,1.52-1.27.19-.17.42-.28.64-.39.41-.2.71-.56.99-.94.48-.67.68-1.46.8-2.29.13-.89.14-1.78.13-2.67,0-.25-.04-.49-.05-.74-.02-.29.06-.55.22-.77.17-.24.26-.49.2-.81-.05-.23.07-.38.23-.5.21-.16.46-.23.71-.3.36-.11.71-.25,1.09-.32.42-.08.84-.13,1.21.17.17.13.23.35.37.5.24.27.36.62.51.96.27.62.46,1.28.64,1.93.2.74.37,1.49.56,2.23.13.5.23,1.01.31,1.52.06.42.16.84.15,1.26-.02.73-.02,1.46-.14,2.19-.15.87-.36,1.72-.63,2.55-.14.41-.31.82-.47,1.23-.29.72-.67,1.38-1.05,2.04-.27.48-.59.93-.92,1.36-.32.42-.65.82-1.01,1.19-.48.5-.99.96-1.53,1.38-.67.52-1.36,1.01-2.08,1.45-.57.35-1.15.65-1.74.95-.38.19-.77.34-1.18.43-.25.06-.29.16-.21.44.21.71.32,1.45.46,2.18.06.31.05.63.09.94.12.9.08,1.81.07,2.71,0,.42-.08.85-.11,1.27-.05.6-.22,1.18-.33,1.77-.08.4-.25.77-.38,1.16-.24.74-.6,1.41-.99,2.06-.47.78-1.03,1.5-1.64,2.15-.65.69-1.37,1.26-2.15,1.75-.33.21-.66.43-1,.61-.67.34-1.35.66-2.04.94-.68.28-1.37.53-2.07.76-.87.28-1.74.53-2.63.75-.82.21-1.66.38-2.49.54-.62.12-1.25.22-1.88.29-.56.07-1.12.13-1.68.17-.52.04-1.04.06-1.56.1-.39.03-.77.03-1.16.03-.6,0-1.2-.05-1.8-.08-.31-.01-.62-.04-.93-.06-.52-.04-1.04-.09-1.55-.16-.4-.06-.81-.1-1.22-.17-.57-.1-1.15-.19-1.72-.31-.78-.17-1.57-.35-2.34-.58-.78-.22-1.55-.47-2.33-.71-.8-.25-1.58-.56-2.35-.9-.9-.39-1.79-.82-2.6-1.4-.51-.36-1.01-.75-1.47-1.21-.23-.23-.46-.47-.69-.71-.37-.37-.65-.84-.96-1.26-.42-.58-.76-1.22-1.05-1.88-.32-.73-.61-1.49-.75-2.3-.06-.35-.15-.7-.21-1.05-.04-.21-.06-.43-.08-.64-.05-.61-.12-1.22-.08-1.82v-.02ZM24.37,51.94c-.03.31.05.52.25.62.45.23.93.38,1.44.36.19,0,.36.08.44.29.05.12.15.2.27.21.39.02.77.16,1.16.07.18-.04.37-.01.56-.01.24,0,.48-.02.72-.09.03-.01.06-.02.1-.02.23.05.45.04.66-.1.06-.04.12-.03.18-.04.12-.01.23.05.34.03.42-.09.81-.29,1.16-.54.25-.17.5-.33.77-.46.12-.06.23-.17.36-.19.39-.04.65-.31.88-.61.11-.14.22-.27.37-.34.11-.05.19-.13.23-.25.04-.14.14-.23.25-.31.11-.07.22-.16.24-.32.02-.15.1-.25.2-.35.2-.21.44-.38.6-.64.18-.28.39-.51.71-.59.28-.08.57-.16.87-.09.05.01.1,0,.16-.02.16-.05.32-.1.49-.05.3.07.46-.03.6-.34.08-.17.17-.33.3-.46.15-.14.29-.29.39-.48.03-.06.09-.09.16-.09.23,0,.46-.07.68-.12.35-.08.56.05.74.37.14.26.32.52.59.66.09.05.19.08.22.2.06.28.23.51.33.78.05.14.14.22.26.25.1.02.19.07.28.13.07.05.14.09.21.08.19-.01.36.05.55.07.05,0,.1.05.15.03.21-.1.33-.03.46.17.11.19.29.33.44.49.07.07.13.16.12.26-.02.35.11.69.03,1.04-.02.09,0,.17.05.26.07.15.15.31.19.48.08.27.21.46.48.54.09.02.19.08.26.16.11.13.24.19.39.23.53.15,1.08.08,1.61.16.1.01.2,0,.3-.02.42-.1.84-.15,1.27-.2.24-.03.49-.02.73-.12.28-.11.57-.23.86-.31.24-.07.49-.16.68-.34.2-.18.41-.33.65-.43.21-.08.39-.27.64-.16.01,0,.04,0,.05-.02.18-.16.41-.23.63-.32.21-.1.34-.31.53-.44.16-.12.32-.29.54-.07.06.06.15.02.21-.04.26-.22.54-.42.86-.55.14-.06.2-.21.15-.38-.03-.09-.05-.19-.03-.28.05-.25.02-.51.02-.76,0-.21,0-.43,0-.64-.01-.14-.02-.27,0-.41.03-.16.06-.31.04-.47-.05-.28-.09-.57-.16-.85-.11-.42-.28-.83-.4-1.25-.02-.06-.06-.13-.11-.17-.32-.26-.58-.58-.88-.87-.16-.16-.35-.28-.48-.48-.13-.19-.31-.32-.51-.39-.09-.04-.18-.08-.25-.16-.26-.26-.56-.44-.9-.56-.23-.08-.47-.17-.65-.35-.19-.19-.39-.33-.64-.37-.21-.03-.42-.11-.63.04-.05.04-.12.04-.18.04-.11,0-.2.05-.28.11-.19.13-.38.23-.59.28-.09.02-.18.05-.25.13-.24.28-.53.48-.8.71-.19.17-.38.37-.67.32-.09-.01-.16.07-.2.16-.11.23-.29.35-.51.4-.15.03-.23.12-.26.27-.02.08-.06.16-.12.2-.18.12-.36.24-.56.34-.14.07-.23.16-.29.31-.05.14-.11.31-.28.31-.22,0-.33.13-.41.33-.07.18-.18.29-.36.32-.09.01-.17.06-.24.13-.05.06-.12.11-.19.14-.17.06-.3.18-.42.32-.12.14-.3.17-.46.08-.17-.1-.35-.19-.55-.21-.19-.02-.31-.14-.36-.35-.02-.08-.06-.16-.13-.2-.22-.16-.44-.31-.7-.4-.49-.17-.98-.35-1.5-.35-.06,0-.12-.02-.17-.07-.16-.16-.37-.17-.57-.18-.11,0-.21.05-.26.14-.08.14-.2.22-.33.3-.1.06-.17.15-.24.25-.04.06-.07.13-.12.17-.25.22-.45.48-.59.79-.07.15-.19.26-.33.32-.11.05-.18-.07-.27-.12-.05-.02-.1-.05-.15-.07-.14-.06-.28-.12-.4-.23-.09-.08-.19-.12-.31-.15-.26-.08-.53-.17-.61-.51-.02-.1-.1-.17-.18-.23-.08-.07-.17-.14-.25-.22-.17-.16-.33-.34-.58-.36-.14,0-.23-.08-.32-.19-.1-.12-.17-.3-.32-.36-.26-.11-.48-.29-.68-.5-.06-.06-.13-.12-.2-.16-.4-.22-.73-.57-1.1-.84-.15-.11-.3-.17-.48-.17-.16,0-.33.01-.49-.03-.18-.04-.38-.02-.53-.11-.23-.13-.48-.19-.71-.3-.32-.17-.62-.1-.93.05-.17.08-.32.19-.5.23-.24.05-.46.17-.7.22-.25.06-.5.15-.71.33-.11.1-.19.24-.32.32-.19.11-.39.21-.56.36-.18.16-.41.22-.61.36-.25.19-.54.31-.78.52-.32.29-.59.61-.69,1.06-.04.18.01.36.01.54,0,.46.03.91.05,1.36.01.42.04.82.18,1.22.1.31.11.65.15.98.02.17.13.29.18.45.06.21.11.43.19.63.1.25.23.51.16.73h0ZM20.76,53.18c.01.14,0,.26.02.38.14.52.28,1.03.39,1.55.07.29.12.59.29.83.31.45.52.97.8,1.45.07.12.14.25.24.36.17.19.35.37.51.59.08.11.15.24.26.33.29.24.59.48.84.77.16.19.33.37.52.54.23.2.46.4.74.51.32.13.63.3.92.5.32.23.68.39,1.02.59.19.11.41.13.6.24.36.23.75.39,1.15.51.28.08.55.21.83.31.22.08.45.12.67.18.43.11.86.24,1.31.3.53.07,1.04.25,1.57.31.33.04.65.11.99.13.24.01.48,0,.71.03.47.07.95.07,1.43.12.24.02.49.02.74.02.4.01.79.07,1.19.05.1,0,.21-.02.3,0,.14.04.28.03.42.02.48-.05.97-.11,1.46-.09.18,0,.37-.03.55-.04.43-.02.86-.19,1.3-.12.2.03.39-.04.59-.03.22,0,.44-.03.66-.08.19-.05.39-.06.59-.08.38-.03.76-.07,1.14-.06.03,0,.06-.02.08-.02.25-.05.5-.1.76-.1.14,0,.27,0,.41-.03.27-.06.54-.15.81-.2.53-.09,1.05-.22,1.58-.34.28-.07.53-.21.8-.31.36-.14.75-.21,1.11-.38.31-.14.63-.28.95-.4.17-.06.34-.15.48-.27.44-.38.96-.64,1.39-1.06.25-.25.57-.41.86-.62.15-.11.35-.19.43-.38.13-.32.37-.52.61-.73.19-.17.4-.33.52-.59.09-.2.19-.4.32-.57.23-.29.39-.63.55-.96.29-.6.52-1.23.78-1.84.25-.6.34-1.23.43-1.86.06-.42.01-.86-.03-1.28-.02-.19.02-.38-.05-.57-.03-.08-.07-.17-.17-.16-.1,0-.12.09-.14.17-.03.13-.03.26-.08.38-.14.34-.25.69-.37,1.03-.1.3-.3.53-.42.81-.03.07-.1.13-.17.16-.21.1-.38.28-.5.48-.18.31-.42.55-.71.73-.33.21-.62.48-.97.66-.24.12-.43.34-.71.33-.02,0-.05,0-.07.02-.19.15-.42.21-.62.33-.3.18-.64.28-.97.39-.11.04-.21.06-.32.06-.21,0-.43-.03-.63.07-.27.13-.56.13-.85.15-.19.01-.38.03-.56.12-.08.04-.16.1-.25.07-.26-.08-.49.02-.72.14-.12.07-.25.12-.4.08-.12-.02-.25-.02-.37.04-.14.08-.29.08-.44.08-.15,0-.31,0-.47,0-.23,0-.46,0-.68-.09-.13-.05-.29-.08-.43-.01-.56.26-1.15.22-1.74.26-.34.02-.67,0-1,.13-.25.09-.53-.01-.78.09-.13.05-.28-.04-.41.01-.33.12-.67.16-1.01.14-.24-.01-.47.09-.72.07-.08,0-.17.03-.23.08-.18.14-.38.17-.59.17-.14,0-.29,0-.44,0-.44.04-.86.25-1.31.3-.43.04-.86.17-1.29-.01-.04-.02-.09-.01-.13,0-.3.08-.61.08-.91.06-.23-.01-.46,0-.68,0-.13,0-.27-.06-.4-.02-.56.18-1.13.09-1.69.04-.53-.05-1.05-.26-1.59-.34-.32-.05-.61-.22-.93-.26-.15-.02-.3-.05-.46-.02-.43.09-.83.03-1.2-.25-.06-.05-.14-.07-.22-.08-.2-.04-.41-.05-.59-.2-.05-.04-.12-.05-.19-.05-.17,0-.34-.05-.5-.13-.26-.13-.51-.27-.78-.38-.14-.06-.29-.12-.39-.26-.09-.12-.21-.17-.33-.21-.21-.06-.43-.12-.59-.3-.04-.05-.11-.08-.17-.08-.3-.04-.5-.25-.73-.43-.16-.13-.29-.3-.48-.42-.27-.17-.57-.31-.8-.56-.31-.35-.63-.7-.83-1.15-.15-.34-.44-.58-.55-.96-.05-.16-.13-.29-.21-.43-.14-.23-.29-.46-.25-.77.01-.11-.05-.22-.13-.31-.1-.11-.22-.1-.31.02-.04.07-.04.14-.05.21,0,.18.04.37-.03.55-.07.15-.07.3-.02.46.08.25.02.53.1.78.06.2.13.39.09.59h0Z"/>
        <path id="Vector_2" class="st0" d="M25.58,48.17c-.06-.53.07-1.05.11-1.58.01-.15.02-.29.06-.43.04-.14.12-.24.25-.28.12-.04.22-.09.28-.22.01-.03.06-.07.09-.07.25-.05.46-.22.7-.27.1-.02.17-.09.2-.21.03-.13.1-.2.22-.24.29-.1.52-.32.78-.47.21-.12.31-.14.51.03.12.1.26.15.41.19.31.08.57.23.79.49.11.14.25.24.41.32.12.06.17.16.22.29.13.39.26.78.46,1.14.06.1.1.2.06.34-.03.1.02.21.05.31.15.43.14.85-.06,1.26-.05.09-.09.18-.1.27-.05.39-.31.57-.59.74-.08.05-.18.07-.27.11-.05.02-.11.04-.13.09-.08.19-.23.19-.37.16-.12-.03-.21.01-.31.05-.24.1-.49.2-.76.15-.22-.04-.44,0-.64.12-.12.08-.24.06-.37.02-.29-.08-.58-.16-.81-.38-.09-.09-.19-.17-.28-.24-.1-.07-.2-.13-.33-.14-.23-.02-.37-.21-.42-.42-.08-.37-.19-.74-.15-1.14h0ZM29.17,47.25c-.01-.09.01-.2-.02-.32-.07-.25-.19-.48-.27-.73-.05-.16-.2-.21-.35-.13-.12.07-.24.05-.35,0-.1-.05-.21-.05-.31,0-.15.08-.29.17-.38.33-.12.2-.22.41-.39.57-.03.02-.06.07-.06.11.02.24-.09.48,0,.72.04.11.05.21.05.32,0,.21.27.46.45.42.25-.06.5-.07.75-.1.34-.04.61-.22.79-.54.11-.19.09-.4.09-.64h0Z"/>
        <path id="Vector_3" class="st0" d="M53.06,46.95c.02.12-.04.23-.03.35,0,.08,0,.16.05.21.15.18.09.38.03.56-.06.19-.15.37-.24.56-.05.1-.1.19-.2.24-.09.05-.17.11-.24.2-.12.16-.31.13-.47.16-.08.02-.15.03-.22.09-.12.1-.25.17-.4.18-.21,0-.36.19-.56.23-.37.06-.72.18-1.07.32-.01,0-.03,0-.04.01-.2,0-.38-.1-.57-.14-.21-.05-.34-.21-.42-.42-.06-.16-.15-.28-.28-.37-.08-.06-.12-.16-.16-.26-.06-.14-.14-.25-.26-.33-.15-.11-.25-.28-.35-.44-.08-.12-.17-.22-.28-.31-.09-.07-.15-.18-.17-.31-.03-.22-.1-.43-.14-.66-.05-.26.03-.49.23-.64.21-.16.43-.31.61-.52.04-.05.11-.1.17-.11.4-.11.69-.41,1.02-.64.06-.04.12-.08.19-.1.18-.05.35-.18.52-.22.4-.1.72-.38,1.12-.46.15-.03.3,0,.44.06.28.1.57.19.76.45.14.19.24.42.36.63.07.13.13.27.22.39.07.09.11.19.13.31.02.13.07.25.12.37.1.2.1.42.12.64h0ZM49.87,45.59c-.07,0-.14,0-.2,0-.07,0-.63.46-.64.54-.04.2-.1.4-.12.61-.03.25.09.46.14.69.09.48.42.76.86.72.26-.02.52-.09.77-.14.29-.05.49-.24.63-.52.14-.28.11-.57-.09-.8-.07-.08-.1-.16-.11-.26-.04-.23-.15-.42-.32-.54-.27-.19-.58-.27-.91-.29h0Z"/>
        <path id="Vector_4" class="st0" d="M45.39,62.55c-.16-.02-.32.04-.48.08-.1.02-.18-.01-.27-.02-.2-.01-.4.05-.6.07-.28.04-.56.02-.84.02-.32,0-.33-.01-.18-.33.1-.23.21-.45.36-.64.11-.15.16-.35.27-.5.25-.36.42-.78.73-1.09.15-.16.23-.38.32-.58.08-.19.2-.33.34-.47.09-.09.2-.07.28.07.08.14.11.3.18.43.15.3.22.63.38.92.04.08.06.17.05.26-.02.14.03.26.13.35.17.15.17.37.15.58-.01.15-.06.3,0,.46.05.12.02.24-.11.27-.23.04-.45.16-.7.14h0Z"/>
        <path id="Vector_5" class="st0" d="M36.01,59.16c.13.02.25.05.38.06.29.01.57-.09.85-.13.01,0,.03-.02.04-.02.28.03.56-.09.83-.06.3.04.59.01.89.02.26,0,.27,0,.2.29-.07.28-.22.51-.34.76-.15.34-.4.6-.63.88-.15.18-.25.4-.41.59-.07.08-.05.21-.09.31-.07.2-.19.24-.32.08-.08-.1-.16-.21-.23-.32-.07-.13-.15-.24-.27-.32-.11-.08-.15-.23-.19-.37-.11-.35-.31-.64-.51-.93-.13-.19-.22-.42-.36-.61-.08-.11,0-.23.16-.24h0Z"/>
        <path id="Vector_6" class="st0" d="M46.7,59.95c.05-.17-.06-.29-.14-.42-.21-.34-.32-.71-.35-1.11-.01-.14.06-.21.18-.27.27-.13.57-.14.85-.18.16-.02.31-.12.48-.1.24.04.49.03.74.03.13,0,.26,0,.38-.05.08-.03.17-.02.22.06.05.08.06.17,0,.25-.1.17-.2.34-.3.5-.11.18-.18.37-.24.58-.07.27-.18.51-.37.72-.23.25-.37.58-.54.87-.1.16-.22.31-.33.46-.04.06-.09.08-.15.06-.07-.02-.06-.09-.06-.14,0-.1-.03-.19-.05-.28-.03-.11-.07-.23-.07-.35,0-.09-.03-.17-.1-.23-.12-.1-.18-.23-.15-.4h0Z"/>
        <path id="Vector_7" class="st0" d="M42.37,58.37c.27.03.61.06.94.1.11.01.21-.03.31-.09.13-.09.29-.11.44-.09.08.01.14.07.08.18-.02.03-.03.07-.06.08-.2.13-.29.32-.32.58-.03.25-.16.45-.34.6-.11.09-.18.2-.17.35.03.27-.08.43-.31.51-.09.03-.15.11-.18.22-.09.35-.31.61-.53.87-.05.07-.12.05-.16-.02-.15-.28-.34-.54-.43-.83-.08-.22-.07-.5-.11-.75-.03-.23-.06-.45-.21-.64-.1-.12-.16-.28-.2-.43-.03-.12,0-.21.1-.27.34-.21.69-.35,1.15-.35h0Z"/>
        <path id="Vector_8" class="st0" d="M48.05,62.09c-.1-.02-.22.05-.28-.1-.05-.13,0-.25.09-.33.3-.3.5-.67.75-1.02.23-.31.41-.67.68-.94.14-.14.16-.36.24-.53.1-.22.3-.32.47-.45.08-.06.18,0,.24.09.24.38.43.78.54,1.23.04.15.11.29.17.44.03.07.05.14.05.21,0,.39,0,.39-.41.6-.23.12-.47.2-.73.24-.19.03-.35.17-.55.19-.37.05-.69.24-1.04.35-.08.02-.15,0-.23.02h0Z"/>
        <path id="Vector_9" class="st0" d="M32.15,62.49c-.31,0-.62-.14-.93-.21-.24-.05-.48-.05-.71-.17-.29-.15-.59-.29-.89-.42-.17-.07-.16-.13-.14-.32.05-.47.29-.83.53-1.2.09-.14.15-.3.27-.43.22-.23.45-.23.67,0,.13.14.24.29.29.48.06.2.21.33.36.44.1.08.17.18.21.31.07.28.18.54.38.73.06.06.1.16.12.25.03.12.06.23.13.33.07.1.05.15-.07.18-.07.02-.14,0-.23.02h0Z"/>
        <path id="Vector_10" class="st0" d="M39.85,63.12c-.12,0-.21,0-.3-.03-.16-.06-.31,0-.46.03-.21.05-.44.02-.64-.07-.08-.04-.11-.12-.07-.21.02-.06.05-.12.09-.16.2-.17.3-.4.33-.67.02-.17.1-.32.22-.44.13-.13.23-.29.38-.39.02-.01.03-.04.04-.07.1-.27.29-.48.4-.75.06-.14.15-.23.26-.31.19-.13.25-.08.3.15.07.3.15.6.18.92.01.12.06.25.13.35.23.3.32.66.44,1.02.01.04.03.08.03.12,0,.08.05.18-.03.24-.08.06-.15.03-.23-.02-.1-.06-.21-.05-.27.04-.12.16-.3.16-.45.2-.11.02-.23.07-.33.04h0Z"/>
        <path id="Vector_11" class="st0" d="M34.3,59.48s0,.04,0,.05c-.17.21-.08.51-.21.74-.12.22-.2.48-.29.72-.02.05-.05.09-.08.1-.16.06-.19.18-.18.35,0,.06,0,.11-.02.17-.05.1-.1.14-.21.08-.2-.11-.33-.31-.45-.51-.22-.36-.42-.74-.54-1.16-.05-.19-.18-.33-.33-.42-.15-.09-.26-.22-.32-.39-.03-.07-.04-.15.02-.21.05-.05.1-.06.18-.05.49.07.97.18,1.47.17.3,0,.59.1.88.19.06.02.11.07.1.16Z"/>
        <path id="Vector_12" class="st0" d="M36.61,62.96c-.05.02-.1-.02-.15-.04-.12-.03-.23,0-.35,0-.5-.02-.99-.04-1.49-.06-.06,0-.12-.02-.18-.04-.1-.04-.15-.11-.11-.25.15-.48.31-.96.52-1.42.04-.1.09-.2.1-.31,0-.11.06-.21.12-.29.1-.13.24-.14.35-.03.09.09.17.19.21.32.06.16.15.29.2.43.11.28.31.47.49.68.04.05.08.09.09.16.04.23.15.42.29.58.05.06.07.12.05.18-.03.07-.09.08-.16.08h0Z"/>
        <path id="Vector_13" class="st0" d="M28.03,58.84c.02-.19-.08-.34-.13-.51-.02-.06-.07-.11-.02-.18.04-.06.1-.04.16-.02.37.11.75.19,1.14.23.12.02.25.07.37.12.12.05.12.15.07.26-.04.09-.09.18-.15.25-.27.36-.29.86-.57,1.21-.01.02-.02.04-.03.05-.15.2-.25.19-.34-.05-.14-.37-.35-.71-.45-1.1-.02-.09-.05-.18-.04-.28h0Z"/>
        <path id="Vector_14" class="st0" d="M27.61,60.79c-.16-.05-.34-.11-.51-.2-.35-.21-.7-.43-1.03-.67-.18-.14-.19-.2-.08-.41.14-.28.28-.55.41-.84.05-.1.11-.19.17-.27.1-.12.16-.1.22.04.02.06.04.13.06.19.03.13.05.27.17.37.06.04.09.13.09.21-.01.28.06.52.24.72.08.09.11.2.15.32.04.14.15.24.21.37.06.12.02.18-.1.18h0Z"/>
        <path id="Vector_15" class="st0" d="M52.07,57.86c.02.13-.02.25-.1.36-.07.1-.1.22-.07.33.07.22,0,.4-.09.58-.05.08-.09.16-.12.25-.01.06-.06.1-.12.09-.06-.01-.07-.07-.07-.12,0-.37-.21-.65-.4-.92-.13-.19-.23-.39-.2-.64.02-.19.13-.31.28-.37.2-.08.4-.14.6-.22.12-.05.2.02.23.14.03.17.08.34.06.52h0Z"/>
        <path id="Vector_16" class="st0" d="M53.52,59.33c-.01.13-.08.24-.16.33-.26.28-.58.46-.92.61-.09.04-.11,0-.12-.09,0-.1.03-.18.07-.27.1-.23.17-.47.23-.71.04-.16-.01-.32.04-.49.05-.17.1-.34.13-.51.02-.12.08-.12.17-.05.36.28.44.71.56,1.13,0,.01,0,.02,0,.04h0Z"/>
        <path id="Vector_17" class="st0" d="M54.15,56.36c.2,0,.22.04.18.21-.03.15-.15.25-.18.41-.03.2-.06.4-.08.6,0,.05-.02.09-.04.13-.02.04-.04.1-.09.1-.05,0-.07-.05-.09-.1-.1-.23-.21-.45-.35-.65-.12-.17-.07-.34.09-.47.18-.14.38-.22.55-.24h0Z"/>
        <path id="Vector_18" class="st0" d="M25.09,57.59c.02-.16-.02-.31-.07-.46-.02-.09-.04-.18.03-.25.08-.08.16-.03.23.01.14.09.28.2.41.31.08.07.09.16.05.25-.1.25-.17.52-.31.76-.03.05-.04.11-.11.1-.06,0-.08-.06-.09-.1-.08-.2-.14-.4-.13-.62Z"/>
        <path id="Vector_19" class="st0" d="M24.43,58.44s-.05,0-.06,0c-.26-.17-.54-.31-.72-.6-.07-.11-.04-.2.05-.26.15-.1.23-.25.27-.43,0-.01,0-.02,0-.03.03-.08.06-.17.15-.16.07.01.09.11.11.19.03.11.02.22,0,.32-.07.26.02.46.19.64.06.07.11.13.1.23,0,.09-.03.13-.08.12h0Z"/>
        <path id="Vector_20" class="st0" d="M54.76,58.2c.03-.15.06-.29.08-.43.02-.16.04-.32.06-.48,0-.08.01-.16.09-.18.09-.03.15.03.19.1.05.1.09.2.15.29.05.08.03.17-.03.21-.18.13-.3.33-.42.51-.03.04-.05.07-.09.06-.03,0-.01-.05-.02-.08h0Z"/>
        <path id="Vector_21" class="st0" d="M55.64,55.81c0,.1-.01.22-.13.22-.09,0-.17-.07-.18-.19,0-.06.16-.22.22-.21.08.02.11.08.1.17Z"/>
        <path id="Vector_22" class="st0" d="M23.25,56.08c-.11.02-.13-.09-.13-.15,0-.09.06-.18.16-.19.1-.02.14.07.13.14,0,.1-.06.18-.17.2Z"/>
        <path id="Vector_23" class="st0" d="M56.43,55.82s-.04.09-.08.09c-.04,0-.06-.03-.06-.07,0-.04.03-.08.07-.09.03,0,.06.02.07.06h0Z"/>
        <path id="Vector_24" class="st0" d="M28.72,47.34c-.02.25-.19.49-.45.67-.08.05-.16.04-.24-.02-.11-.08-.23-.16-.34-.25-.13-.1-.16-.27-.2-.43-.01-.05.01-.12.04-.14.14-.11.23-.27.36-.39.15-.14.34-.21.53-.11.21.11.3.32.3.67h0Z"/>
        <path id="Vector_25" class="st0" d="M50.71,46.96c-.02.25-.19.49-.45.67-.08.05-.16.04-.24-.02-.11-.08-.23-.16-.34-.25-.13-.1-.16-.27-.2-.43-.01-.05.01-.12.05-.14.14-.11.23-.27.36-.39.15-.14.34-.21.53-.11.21.11.3.32.3.67h0Z"/>
      </g>
    </g>
  </g>
</svg>