<?xml version="1.0" encoding="UTF-8"?>
<svg id="Layer_1" xmlns="http://www.w3.org/2000/svg" version="1.1" viewBox="0 0 80 80">
  <defs>
    <style>
      .st0 {
        fill: currentColor;
      }
    </style>
  </defs>
  <g id="EGG-HUMAN">
    <g id="Layer_1-2">
      <path id="LOGO_-_FULL_COLOUR" class="st0" d="M65.73,37.77c-.11-.96-.27-1.91-.48-2.84-.22-.97-.49-1.92-.82-2.86-.41-1.16-.88-2.29-1.53-3.32-.3-.47-.58-.98-1.08-1.25-.23-.12-.44-.3-.72-.25-.23.04-.3.15-.26.4.04.25.12.49.19.72.28.89.59,1.77.87,2.66.55,1.8.88,3.65.99,5.55.03.58.05,1.16.01,1.75-.03.39-.03.78-.07,1.17-.1.87-.23,1.73-.43,2.58-.37,1.55-.84,3.06-1.44,4.51-.37.89-.79,1.76-1.27,2.59-.84,1.45-1.83,2.77-3.02,3.9-.94.9-1.96,1.68-3.05,2.36-1.25.79-2.57,1.41-3.94,1.88-.59.2-1.19.33-1.81.34-.78.01-1.54-.12-2.29-.38-.49-.17-.84-.51-1.11-.96-.21-.35-.36-.73-.47-1.14-.19-.75-.26-1.48.03-2.22.26-.66.68-1.16,1.22-1.55,1.18-.86,2.38-.95,3.63-.16.56.35,1.05.81,1.56,1.25.36.3.73.58,1.19.68.19.04.39.08.57.01.57-.2.92-.63,1.02-1.3.06-.45-.09-.85-.35-1.15-.27-.31-.65-.48-1.03-.61-.58-.2-1.18-.31-1.75-.57-.35-.16-.68-.35-.92-.69-.17-.24-.22-.55-.1-.84.1-.25.28-.39.5-.5.65-.34,1.36-.35,2.05-.45.57-.08,1.15-.12,1.67-.42.41-.23.69-.6.77-1.12.06-.44-.1-.8-.31-1.13-.09-.15-.24-.3-.42-.35-.54-.14-1.05-.04-1.54.21-.57.29-1.1.67-1.66.98-.37.2-.75.36-1.15.32-.5-.05-.87-.29-1.03-.91-.13-.49-.08-.97,0-1.46.1-.65.26-1.28.22-1.95-.02-.26-.05-.52-.16-.75-.18-.37-.43-.63-.82-.75-.2-.06-.41-.06-.58-.01-.57.16-.99.9-.95,1.53.06.76.2,1.5.24,2.26.03.53,0,1.06-.29,1.53-.35.54-.92.61-1.39.27-.33-.24-.54-.58-.75-.94-.37-.64-.64-1.35-1.09-1.94-.31-.41-.68-.65-1.19-.63-.65.03-1.05.63-1.11,1.25-.06.58.18,1.05.51,1.47.4.52.91.93,1.34,1.42.28.32.51.68.56,1.13.05.42-.1.76-.36,1.05-.28.32-.65.48-1.02.64-.52.23-1.04.46-1.54.77-.43.28-.77.67-1.04,1.09-.56.87-.75,1.89-.76,2.95,0,.25,0,.49-.03.74-.01.14-.04.31-.15.35-.07.02-.13-.16-.17-.25-.59-1.19-1.01-2.46-1.46-3.71-.61-1.69-1.38-3.28-2.39-4.73-.53-.77-1.17-1.43-1.81-2.09-.63-.65-1.31-1.23-1.98-1.83-.79-.69-1.56-1.39-2.14-2.31-.28-.45-.52-.93-.62-1.48-.05-.26.06-.4.29-.4.14,0,.29,0,.43.04.24.07.49.13.73.19.47.11.95.18,1.43.21.37.02.74.02,1.11,0,.59-.04,1.14.05,1.61.52.4.39.82.74,1.26,1.08.33.25.61.57.82.95.26.46.37.98.46,1.51.1.62.15,1.25.37,1.84.31.83,1.04,1.49,1.88,1.12.41-.18.69-.53.78-.99.08-.43,0-.86-.16-1.27-.19-.47-.45-.9-.68-1.35-.25-.51-.48-1.01-.49-1.62-.01-.7.42-1.28.99-1.47.58-.19,1.15-.1,1.71.07.55.16,1.07.44,1.62.61.6.19,1.19.23,1.75-.15.41-.28.66-.93.54-1.41-.08-.32-.23-.59-.46-.81-.26-.25-.58-.35-.91-.41-.36-.07-.73-.02-1.09.02-.51.06-1.02.13-1.54.05-.41-.07-.78-.22-1.06-.54-.14-.15-.23-.37-.24-.59-.01-.4.17-.71.44-.98.29-.28.63-.47.97-.65.48-.25.98-.46,1.41-.82.33-.28.61-.63.66-1.09.05-.48-.08-.93-.44-1.27-.38-.37-.94-.4-1.36-.17-.53.28-.92.73-1.31,1.18-.44.5-.87,1-1.49,1.25-.45.18-.98.07-1.23-.43-.28-.57-.3-1.18-.26-1.8.04-.59.12-1.18.15-1.77.04-.63-.05-1.22-.49-1.69-.26-.28-.56-.41-.92-.38-.76.08-1.22.79-1.23,1.59,0,.55.12,1.07.23,1.6.12.59.24,1.19.17,1.81-.05.46-.18.89-.43,1.27-.59.9-1.44,1.26-2.4,1.27-.72.01-1.41-.19-1.99-.73-.34-.32-.63-.68-.82-1.11-.28-.67-.42-1.38-.44-2.14-.02-1.11.16-2.16.59-3.17.51-1.18,1.3-2.07,2.33-2.72,1.13-.71,2.35-1.1,3.64-1.2.77-.06,1.54,0,2.3.14,1.36.26,2.63.79,3.87,1.43,1.36.7,2.65,1.53,3.97,2.32,1.42.84,2.86,1.65,4.4,2.2,1.24.44,2.5.72,3.81.69.86-.02,1.69-.21,2.49-.54.74-.3,1.38-.76,1.85-1.47.26-.4.37-.86.31-1.32-.08-.68-.41-1.25-.78-1.79-.43-.63-.96-1.18-1.47-1.73-.51-.54-1.05-1.04-1.54-1.59-.45-.5-.88-1.02-1.26-1.59-.27-.41-.53-.84-.77-1.28-.37-.7-.74-1.41-1.11-2.12-.24-.46-.54-.88-.83-1.31-.26-.37-.53-.73-.84-1.05-.55-.56-1.11-1.08-1.79-1.46-.36-.2-.72-.42-1.08-.6-1.07-.52-2.19-.83-3.34-1.03-1.23-.21-2.46-.25-3.69-.05-.78.12-1.53.33-2.27.6-.99.38-1.9.93-2.77,1.55-.92.65-1.77,1.42-2.66,2.12-1.07.83-2.19,1.55-3.39,2.13-.87.42-1.75.8-2.61,1.22-1.35.66-2.63,1.46-3.79,2.47-.61.53-1.18,1.12-1.7,1.75-.42.5-.81,1.03-1.17,1.58-.51.78-.98,1.59-1.4,2.43-.46.93-.88,1.88-1.21,2.87-.33.98-.61,1.97-.84,2.98-.18.83-.34,1.66-.45,2.5-.07.51-.14,1.02-.16,1.54-.03.63-.09,1.27-.11,1.9-.01.52,0,1.04.02,1.56.03.73.06,1.46.13,2.19.09,1.05.27,2.08.47,3.11.24,1.2.57,2.37.94,3.53.45,1.41,1.03,2.74,1.67,4.05.76,1.54,1.62,3.01,2.66,4.35.77.99,1.59,1.91,2.44,2.81.81.84,1.69,1.58,2.61,2.26,1.42,1.05,2.9,1.96,4.47,2.72,1.28.61,2.59,1.14,3.95,1.51.84.23,1.67.45,2.53.58.46.07.92.13,1.38.19.69.09,1.38.16,2.08.17.55,0,1.11,0,1.69,0,.21,0,.46-.02.7-.03.53-.04,1.06-.07,1.59-.14.94-.12,1.88-.29,2.8-.53,1.27-.33,2.5-.78,3.71-1.3,1.21-.52,2.37-1.16,3.5-1.87,1.05-.66,2.04-1.4,2.99-2.22.99-.86,1.87-1.84,2.71-2.86,1.32-1.58,2.5-3.28,3.49-5.13.78-1.45,1.43-2.97,1.96-4.55.59-1.73,1.02-3.51,1.27-5.34.11-.83.2-1.65.22-2.48.03-1.23,0-2.46-.14-3.68h0ZM45.1,16.02c.97.01,1.83.95,1.83,2.1.01,1.12-.77,2.04-1.85,2.03-1.11-.01-1.91-.92-1.93-2.08-.02-1.3.89-2.06,1.94-2.05Z"/>
    </g>
  </g>
</svg>