<?xml version="1.0" encoding="UTF-8"?>
<svg id="Layer_1" xmlns="http://www.w3.org/2000/svg" version="1.1" viewBox="0 0 80 80">
  <defs>
    <style>
      .st0 {
        fill: currentColor;
      }
    </style>
  </defs>
  <g id="EGG-HUMAN">
    <g id="Group_7343">
      <g id="SKULL_-_PANTONE_P_169-1_U">
        <path id="Vector" class="st0" d="M22,30.48c.24-.66.55-1.28.94-1.85.26-.39.53-.78.8-1.17.3-.44.61-.87.92-1.3.11-.14.12-.27.07-.44-.25-.79-.47-1.58-.73-2.36-.32-.97-.55-1.95-.74-2.96-.19-1.04-.44-2.07-.65-3.11-.09-.45-.16-.92-.22-1.38-.03-.24-.04-.48-.04-.72,0-.11.04-.25.11-.32.11-.11.26-.08.39.01.78.59,1.56,1.17,2.33,1.77.57.44,1.12.9,1.68,1.36.11.08.21.16.32.25,1.11.9,2.22,1.8,3.34,2.69.18.14.36.35.56.38.19.03.41-.12.62-.2.28-.1.56-.2.85-.29.98-.32,1.95-.65,2.93-.96.57-.18,1.15-.33,1.72-.49.2-.05.31-.15.39-.37.09-.26.24-.5.38-.74.24-.4.51-.77.74-1.17.21-.36.46-.68.73-.99.11-.12.2-.27.29-.41.12-.2.23-.41.36-.61.36-.59.73-1.17,1.1-1.76.06-.1.12-.2.17-.31.38-.8.75-1.61,1.13-2.41.31-.65.67-1.26,1.11-1.81.25-.32.46-.68.69-1.03.12-.18.24-.36.37-.54.09-.13.2-.3.36-.23.12.05.22.22.27.36.1.31.15.63.22.94.12.57.22,1.15.33,1.72.09.5.17,1,.28,1.49.14.64.3,1.28.47,1.91.19.68.39,1.35.59,2.03.32,1.08.63,2.16.95,3.25.03.09.07.16.11.25.14.35.29.7.42,1.06.05.13.11.22.22.29.56.31,1.06.69,1.49,1.2.22.26.52.42.77.65.5.44.99.88,1.48,1.33.39.36.78.72,1.16,1.09.13.12.25.14.41.11.81-.19,1.61-.38,2.42-.56.59-.14,1.18-.25,1.77-.42.78-.22,1.55-.48,2.33-.71.3-.09.62-.14.93-.18.76-.08,1.53-.15,2.3-.23.4-.04.77-.22,1.15-.36.18-.07.37-.12.56-.16.1-.02.2,0,.3.03.22.07.29.24.21.47-.05.15-.12.3-.2.44-.11.2-.21.41-.34.59-.45.64-.73,1.38-1.01,2.12-.29.76-.68,1.43-1.14,2.08-.3.42-.56.88-.82,1.34-.29.52-.56,1.05-.85,1.57-.26.48-.57.92-.94,1.31-.05.05-.1.12-.14.17,0,.04,0,.06,0,.08.42.74.71,1.54.96,2.36.62,1.99.74,4,0,5.98-.28.76-.67,1.47-1.04,2.18-.4.76-.84,1.64-1.03,2.26.36.32.72.68,1.16.89,1.06.5,2,1.19,2.84,2.05.44.44.9.84,1.35,1.27.26.25.53.51.78.78.27.29.57.55.93.7.36.16.66.4.88.76.19.32.17.45-.15.61-.14.07-.3.1-.45.13-.36.07-.72.1-1.07.18-.61.15-1.21.13-1.82.05-.42-.05-.83-.08-1.24.03-.64.17-1.3.23-1.95.3-.09,0-.19.03-.27.06-.61.21-1.23.31-1.86.31-.6,0-1.15.21-1.7.42-.08.03-.15.12-.19.2-.22.48-.51.89-.82,1.3-.37.49-.87.8-1.38,1.06-.5.26-1.03.45-1.54.69-.52.25-1.03.52-1.54.79-.33.18-.55.47-.69.84-.12.31-.23.62-.31.94-.09.36-.09.72,0,1.08.06.2.05.39-.03.56-.18.39-.36.78-.58,1.14-.28.46-.73.68-1.2.83-.19.06-.4.1-.6.13-.57.09-1.14.17-1.71.25-.27.04-.54.06-.8.11-.25.05-.51.1-.76.18-.28.09-.48.32-.61.59-.22.49-.52.91-.84,1.32-.31.38-.52.82-.6,1.31-.09.52-.35.9-.72,1.22-.37.32-.77.56-1.23.67-.48.12-.95.26-1.43.41-.24.08-.47.2-.69.31-.16.08-.31.18-.47.26-.26.13-.47.31-.67.53-.18.2-.4.36-.61.52-.09.07-.2.1-.31.13-.22.05-.33-.06-.36-.29-.07-.5-.3-.88-.73-1.09-.43-.21-.89-.3-1.35-.34-.28-.03-.53.05-.74.27-.13.14-.3.24-.46.33-.19.11-.37.06-.5-.12-.09-.13-.16-.28-.23-.41-.19-.36-.38-.72-.57-1.08-.11-.21-.24-.41-.33-.63-.17-.41-.39-.78-.66-1.12-.49-.64-.76-1.38-.8-2.22-.04-.8-.25-1.56-.56-2.28-.18-.41-.49-.64-.9-.65-.39-.01-.78.03-1.17.02-.38,0-.76-.04-1.14-.06-.84-.04-1.62-.31-2.41-.58-.66-.22-1.26-.58-1.82-1.02-.24-.2-.35-.46-.33-.79.08-1.09,0-2.17-.14-3.25-.1-.78-.31-1.52-.66-2.21-.11-.21-.24-.3-.47-.28-.64.04-1.28-.03-1.91-.17-.26-.06-.53-.07-.8-.05-.88.04-1.76.01-2.64-.07-.2-.02-.37-.11-.52-.25-.17-.16-.19-.33-.06-.53.26-.42.56-.8.92-1.13.41-.38.81-.78,1.18-1.2.25-.28.46-.6.69-.92.29-.4.57-.8.87-1.19.13-.17.19-.33.19-.55,0-.6,0-1.2.01-1.79,0-.62.13-1.23.29-1.82.29-1.05.46-2.13.58-3.22.09-.87.19-1.73.3-2.59.03-.2,0-.34-.12-.5-.5-.65-.98-1.33-1.49-1.97-.54-.68-1.1-1.34-1.67-2-.62-.73-1.22-1.48-1.75-2.28-.1-.15-.17-.31-.26-.46-.08-.13-.15-.25-.23-.38-.08-.13-.2-.26-.13-.43.08-.17.23-.19.38-.18.6,0,1.2.03,1.8.16.57.12,1.15.2,1.72.31.33.07.64.18.97.26.28.07.56.14.85.17.79.06,1.57.1,2.36.15.02,0,.03,0,.09-.02M25.57,28.98s-.07-.03-.1-.04c-.03.06-.06.12-.1.18-.35.49-.74.97-1.06,1.49-.7,1.18-1.36,2.39-2.05,3.58-.33.58-.55,1.19-.65,1.86-.07.47-.12.94-.18,1.41-.05.35.09.57.41.68.12.04.25.08.36.15.24.13.26.35.05.52-.17.14-.36.24-.56.33-.41.21-.75.48-.89.98-.03.1-.07.19-.11.28-.25.64-.34,1.32-.35,2.02,0,.42.15.76.33,1.11.06.12.16.2.3.19.34-.02.69,0,.98-.27.07-.06.16-.09.25-.13.48-.23.95-.45,1.43-.68.46-.22.94-.3,1.44-.18.31.08.64.1.96.17.2.04.4.09.59.15.17.05.33.13.5.19.09.03.19.07.18.19,0,.13-.06.24-.19.26-.11.01-.22,0-.33-.01-.18,0-.37-.03-.55-.01-.44.05-.88.12-1.33.18-1.44.2-2.59.91-3.38,2.28-.23.4-.5.78-.75,1.17-.13.2-.26.39-.39.59-.19.28-.23.6-.16.93.12.56.3,1.09.65,1.53.1.12.19.25.27.39.43.71.85,1.43,1.27,2.14.42.71.63,1.45.47,2.31-.09.46-.12.92.04,1.38.03.1.04.22.06.33.07.47.13.94.22,1.41.09.48.26.62.71.64.29.01.57-.02.86-.02.5,0,1,0,1.5,0,.26,0,.52.04.78.03.2-.01.41-.05.59-.14.49-.25.93-.16,1.38.11.97.57,1.77,1.36,2.49,2.26.13.17.26.35.36.54.36.7.84,1.29,1.4,1.8.05.04.1.1.13.16.06.11.1.22.03.34-.06.12-.17.05-.25.06-.26.02-.45-.18-.67-.26-.29-.11-.53-.29-.72-.55-.12-.16-.24-.31-.37-.46-.04-.05-.1-.07-.2-.14,0,.16-.02.26,0,.36.02.12.09.22.12.34.14.47.33.93.4,1.42.1.7.4,1.24.9,1.65.19.15.27.34.32.58.08.4.18.79.28,1.18.03.13.07.28.23.29.33-.27.36-.35.2-.73-.05-.12-.11-.24-.15-.36-.05-.13-.1-.26-.12-.4-.01-.08.03-.18.07-.24.06-.08.16-.06.23,0,.11.09.22.19.31.3.18.2.34.42.52.63.12.13.26.17.44.13,0-.25,0-.5.03-.73.02-.14.06-.3.14-.42.1-.16.25-.15.34.02.08.15.13.31.18.48.07.24.12.49.18.73.03.1.07.17.17.21.18.07.36.15.54.24.12.06.23.04.34-.02.16-.08.2-.23.23-.39.05-.29.13-.57.3-.81.05-.07.14-.14.22-.15.11-.01.14.12.16.21.08.34.14.67.05,1.02-.05.18.03.4.13.43.16.05.25-.06.36-.17.14-.14.28-.3.45-.4.2-.13.35-.29.45-.52.22-.51.43-1.02.65-1.54.05-.12.09-.24.24-.2.14.04.15.16.13.29-.04.27-.08.54-.11.81-.02.14-.08.29,0,.44.66-.01,1.15-.57,1.15-1.16,0-.15.03-.3.05-.45.07-.72.16-.85.78-1.1.32-.13.6-.32.85-.56.08-.08.17-.17.22-.27.04-.09.07-.22.04-.31-.03-.13-.17-.11-.27-.1-.07,0-.15.03-.22.05-.24.07-.47.09-.72.04-.1-.02-.2-.02-.31-.02-.34,0-.61.13-.84.4-.13.16-.28.3-.44.41-.62.43-1.17.92-1.66,1.52-.11.14-.26.26-.41.36-.17.11-.3.01-.28-.2.01-.11.04-.22.09-.31.35-.61.71-1.22,1.22-1.69.36-.33.7-.66,1-1.05.31-.39.69-.64,1.18-.67.13,0,.26-.05.38-.08.7-.16,1.41-.25,2.13-.26.82-.02,1.65-.09,2.46-.3.22-.06.46-.09.68-.12.34-.04.68-.08,1.02-.12.16-.02.29-.12.4-.26.31-.44.45-.93.29-1.48-.05-.19-.12-.38-.19-.57-.19-.52-.23-1.07-.2-1.61.04-.76.42-1.33.91-1.82.39-.39.82-.73,1.23-1.09.06-.06.15-.1.19-.17.15-.28.38-.47.63-.63.27-.19.41-.46.44-.8.01-.17,0-.34,0-.52,0-.12,0-.25.17-.32.23.44.31.9.17,1.38-.07.25-.17.49-.29.72-.1.19-.21.4-.37.52-.32.25-.49.63-.76.92-.12.13-.11.32-.06.49.06.18.21.15.33.14.41-.02.73-.24.98-.57.31-.41.68-.71,1.13-.9.34-.14.61-.38.82-.7.34-.51.66-1.03,1-1.54.26-.39.43-.83.58-1.28.06-.18.12-.36.19-.54.36-1.03.73-2.06,1.08-3.1.16-.47.36-.91.58-1.34.39-.76.76-1.53,1-2.37.07-.25.19-.48.3-.72.31-.64.65-1.27.84-1.98.2-.75.45-1.48.66-2.22.15-.56.23-1.13.16-1.71-.04-.33-.08-.66-.14-.99-.04-.2-.1-.41-.18-.6-.11-.29-.25-.56-.38-.84-.08-.18-.14-.36-.3-.53-.05.12-.09.2-.12.3-.35.93-.7,1.85-1.03,2.79-.17.49-.42.9-.78,1.24-.18.17-.37.33-.55.51-.06.05-.12.13-.13.21-.06.41-.11.82-.16,1.23-.19,1.59-1.01,2.75-2.1,3.74-.16.15-.32.31-.45.49-.22.31-.42.64-.62.97-.11.18-.25.32-.47.31-.06-.21-.07-.26,0-.34.22-.21.31-.5.45-.76.34-.64.7-1.27,1.05-1.9.29-.52.58-1.04.76-1.62.15-.51.13-1.01.03-1.54-.24.03-.46.08-.68.07-1.05-.02-2.03-.31-2.9-.99-.28-.22-.55-.44-.84-.66-.1-.08-.2-.14-.31-.19-.1-.04-.22-.07-.31.09.08.14.16.3.26.45.13.2.27.39.42.56.22.26.46.5.68.76.1.12.19.25.25.4.06.13,0,.24-.13.21-.13-.02-.27-.08-.38-.16-.17-.14-.33-.3-.48-.47-.62-.72-1.3-1.39-1.91-2.12-.51-.62-.98-1.27-1.42-1.95-.58-.91-.95-1.9-1-3.02-.03-.65-.05-1.3-.08-1.94-.04-.79.03-1.58.18-2.35.01-.05.01-.11.04-.14.04-.05.09-.1.14-.11.03,0,.1.07.11.11.03.16.07.34.07.5,0,.31.04.6.14.89.03.07.11.16.17.17.06,0,.13-.09.19-.14.03-.03.04-.07.05-.11.14-.49.27-.99.44-1.47.08-.23.2-.46.34-.66.58-.82,1.4-1.25,2.23-1.66.4-.19.82-.34,1.22-.5.05-.02.08-.06.15-.1-.2-.16-.39-.28-.56-.44-.57-.53-1.14-1.07-1.72-1.6-.36-.32-.78-.55-1.17-.75-.25.26-.5.5-.72.75-.45.5-1,.84-1.59,1.09-.13.05-.29.03-.4.11-.35.22-.75.3-1.13.41-.46.12-.92.26-1.39.32-.68.08-1.37.08-2.05-.05-.78-.14-1.54-.36-2.19-.91-.54-.46-1.09-.9-1.64-1.36-.12-.1-.22-.22-.31-.34-.05-.07-.12-.16-.03-.23.05-.04.15,0,.23.02.02,0,.04.04.06.06.55.35,1.1.71,1.65,1.06.08.05.17.09.27-.04-.06-.07-.12-.14-.18-.21-.13-.14-.28-.28-.39-.43-.28-.39-.64-.67-1-.95-.23-.18-.44-.19-.7-.09-.96.38-1.92.75-2.88,1.13-.21.08-.4.19-.6.29v.07c.21.1.41.21.63.31.39.17.71.43.96.8.18.26.35.52.6.7.1.08.18.2.24.33.3.62.65,1.2.89,1.85.37,1,.55,2.02.46,3.09-.05.63-.14,1.25-.54,1.75-.38.47-.75.95-1.14,1.41-.66.78-1.54,1.13-2.41,1.53-.04.02-.09.02-.14.03-.64.14-1.29.28-1.93.42-.09.02-.2,0-.29,0-.04-.14.04-.2.11-.23.2-.07.4-.13.61-.18.12-.03.25,0,.35-.05.35-.16.71-.31,1.03-.53.43-.28.82-.63,1.23-.95,0,0,0-.03.01-.05-.26.03-.39.08-.66.28-.37.29-.78.47-1.22.56-.15.03-.29.06-.44.09-.79.14-1.58.34-2.39.32-.27,0-.51-.07-.74-.21-.64-.38-1.22-.85-1.75-1.39-.6-.61-.99-1.35-1.13-2.25-.08-.56-.21-1.11-.32-1.66M48.92,30.95c.08.77.12,1.52.43,2.21.33.73.92,1.09,1.65.97.3-.05.56-.2.82-.36.69-.42,1.35-.88,1.94-1.46.39-.39.82-.73,1.26-1.05.2-.14.39-.31.57-.48.54-.49,1.06-1.01,1.64-1.46.77-.6,1.5-1.26,2.25-1.88.18-.15.37-.3.58-.41.12-.07.26-.09.4-.11.11-.02.19.05.14.18-.08.24-.14.52-.27.72-.18.28-.4.53-.64.76-.46.45-.99.78-1.58.99-.16.05-.31.12-.46.2-.32.17-.64.35-.85.66-.37.54-.68,1.12-.81,1.79-.19.98-.59,1.83-1.18,2.58-.1.12-.19.25-.27.39-.23.4-.34.83-.3,1.3.03.4.29.77.8.59.38-.13.7-.37.95-.71.08-.1.13-.22.16-.35.12-.57.42-1.03.78-1.45.34-.38.68-.75,1-1.14.51-.61.96-1.27,1.27-2.02.29-.68.63-1.33,1.04-1.94.44-.65.9-1.29,1.34-1.94.14-.21.29-.42.42-.64.35-.62.68-1.25,1.02-1.88.06-.11.11-.24.14-.36.04-.19-.01-.26-.18-.31-.49-.15-.98-.15-1.44.07-.37.17-.74.24-1.14.25-.71.03-1.4.17-2.03.56-.11.07-.23.13-.35.19-.8.42-1.63.72-2.53.76-.82.04-1.63.09-2.45.12-.77.02-1.5.21-2.22.52-.44.18-.78.48-1.06.9-.25.38-.4.8-.49,1.25-.09.46-.19.93-.28,1.39-.04.21-.05.42-.08.6M26.59,23.1s.06-.04.09-.05c.09.08.2.14.27.24.23.36.46.71.65,1.09.35.72.65,1.46,1.07,2.13.28.44.53.91.76,1.38.35.71.73,1.39,1.16,2.04.21.32.42.64.6.98.27.5.68.76,1.18.87.08.02.17.03.25.04.28.06.54,0,.76-.19.12-.1.24-.2.33-.32.26-.33.46-.71.62-1.11.3-.77.36-1.59.49-2.39.06-.41-.04-.76-.27-1.08-.12-.16-.25-.33-.41-.44-.37-.26-.76-.51-1.16-.73-.48-.27-.91-.6-1.25-1.05-.55-.73-1.2-1.35-1.82-2.01-.45-.48-.96-.85-1.55-1.11-.2-.09-.39-.23-.59-.34-.26-.14-.51-.28-.77-.42-.23-.13-.46-.26-.69-.38-.14-.07-.29-.13-.44-.15-.23-.03-.29.08-.25.33.07.47.13.94.2,1.41.1.6.17,1.2.32,1.78.24.93.55,1.85.81,2.78.18.63.33,1.27.47,1.9.14.64.25,1.29.38,1.93.16.82.53,1.52,1.05,2.14.09.11.19.17.34.14.25-.05.42-.22.43-.5,0-.22.01-.45-.04-.66-.16-.65-.33-1.31-.54-1.94-.16-.48-.39-.94-.59-1.41-.28-.65-.51-1.33-.84-1.95-.44-.83-.71-1.72-.98-2.61-.03-.11-.03-.23-.04-.34M44.34,19.6c0-.56-.02-1.15,0-1.73.02-.28.12-.57.2-.84.02-.07.14-.16.21-.15.07,0,.14.1.2.18.03.04.04.11.04.17.03.6.08,1.19.1,1.79.02.56.07,1.1.36,1.57.14.24.31.45.47.68.11.17.27.24.45.26.19.02.28,0,.35-.21.08-.25.15-.51.17-.76.06-.72-.11-1.39-.39-2.03-.24-.55-.4-1.12-.5-1.7-.13-.8-.24-1.6-.43-2.38-.25-1.01-.49-2.01-.73-3.02-.02-.1-.01-.2-.03-.3-.05-.21-.07-.44-.16-.64-.1-.24-.28-.27-.45-.08-.13.14-.24.31-.33.48-.37.68-.74,1.36-1.1,2.04-.07.13-.14.26-.2.4-.26.56-.5,1.13-.78,1.68-.14.28-.32.56-.53.77-.64.66-1.16,1.42-1.65,2.21-.21.35-.39.71-.5,1.11-.08.28-.08.56.04.83.17.37.33.75.55,1.09.28.44.58.89,1.02,1.15.63.38,1.29.66,2.03.66.14,0,.28.01.42.03.54.06.91-.22,1.04-.8.04-.18.08-.36.08-.54.03-.63.04-1.25.06-1.91ZM58.72,47.39c-.06.23-.11.42-.16.62.1.04.17.06.24.08.78.21,1.51.55,2.21.97.09.05.18.1.26.18.05.05.08.16.06.21-.03.07-.11.14-.18.15-.1.02-.2,0-.3-.02-.25-.06-.51-.12-.76-.19-.57-.15-1.14-.14-1.71.02,0,0-.02,0-.03,0-.14.01-.22.1-.25.24-.11.45-.23.89-.35,1.34-.07.28-.14.56-.22.87.37-.02.73-.02,1.06-.17.57-.26,1.17-.31,1.77-.32.37,0,.74,0,1.11,0,.19,0,.37-.04.55-.05.52-.02,1.04-.04,1.56-.05.15,0,.31-.02.37-.2.08-.2.05-.38-.09-.53-.12-.14-.26-.26-.4-.37-.56-.43-1.13-.85-1.7-1.27-.35-.26-.72-.49-1.13-.64-.32-.12-.64-.28-.95-.42-.31-.14-.61-.28-.96-.43M21.04,32.44c-.19-.04-.39-.07-.58-.13-.37-.11-.77-.17-1.12-.35-.93-.48-1.93-.7-2.9-1.03-.11-.04-.27-.1-.39.09.07.1.14.2.21.31.41.57.82,1.15,1.25,1.71.19.26.4.51.62.73.39.41.81.81,1.21,1.21.04.04.08.09.12.12.09.06.2,0,.19-.12,0-.08-.03-.16-.08-.22-.11-.17-.23-.34-.36-.5-.35-.43-.78-.77-1.2-1.12-.16-.13-.31-.29-.45-.45-.04-.04-.04-.12-.07-.21.08,0,.13,0,.17.02.38.24.76.47,1.12.72.47.32.94.65,1.41.98.04.02.08.03.12.04.25-.6.49-1.19.74-1.81M18.35,50.12s-.06.02-.08.04c-.32.28-.65.57-.96.86-.1.09-.21.19-.23.37.59,0,1.16,0,1.73,0,.06,0,.11-.04.16-.07-.21-.41-.41-.79-.62-1.2Z"/>
        <path id="Vector_2" class="st0" d="M41.39,58.34c-.15.04-.28.02-.41-.04-.13-.07-.26-.15-.39-.23-.19-.12-.39-.23-.58-.35-.33-.21-.66-.41-.96-.65-.18-.15-.31-.37-.44-.58-.26-.41-.46-.85-.57-1.35-.06-.28-.16-.56-.24-.84-.12-.43-.21-.86-.23-1.31,0-.18-.04-.36-.07-.54-.32-1.66.06-3.11,1.06-4.38.17-.21.38-.38.59-.54.17-.13.32-.28.41-.48.23-.53.61-.91,1.06-1.21.08-.05.16-.1.23-.17.27-.29.59-.35.95-.3.36.04.72.1,1.08.09.47-.01.94-.07,1.41-.14.71-.1,1.41-.02,2.09.23.76.28,1.37.78,1.75,1.59.23.49.51.94.77,1.41.27.48.55.97.71,1.51.24.86.17,1.72,0,2.58-.17.84-.65,1.41-1.33,1.81-.17.1-.35.19-.52.29-.34.2-.61.48-.85.82-.36.53-.81.97-1.32,1.33-.19.13-.4.22-.62.24-1.1.12-2.2.07-3.31-.04-.19-.02-.38-.07-.57-.11-.05-.01-.11-.03-.16-.04-.13-.02-.25,0-.31.14-.07.14-.04.29.05.4.16.19.34.37.52.54.09.09.2.15.21.32"/>
        <path id="Vector_3" class="st0" d="M31.78,51.26c-.03.29-.07.66-.12,1.03-.01.12-.07.23-.1.35-.09.31-.18.62-.25.93-.1.45-.21.9-.41,1.32-.12.26-.23.53-.33.81-.13.36-.37.63-.63.87-.09.09-.26.09-.39.12-.04,0-.11-.04-.13-.08-.01-.04.02-.13.05-.15.26-.18.35-.49.45-.78.12-.33-.06-.68-.38-.64-.34.04-.62-.08-.91-.22-.38-.18-.77-.29-1.18-.32-.3-.02-.59-.09-.88-.13-.35-.05-.7-.08-1.04-.14-.22-.04-.45-.07-.64-.16-.89-.41-1.55-1.1-1.96-2.06-.24-.54-.3-1.12-.24-1.72.02-.22.03-.44.02-.66-.09-1.07.26-1.94.95-2.67.38-.4.81-.64,1.33-.68.42-.03.79-.18,1.17-.35.21-.09.44-.17.67-.21.86-.15,1.68.02,2.43.52.18.12.33.29.47.46.15.18.28.38.4.58.28.47.59.9.95,1.3.39.43.54.98.62,1.57.04.34.05.68.08,1.12"/>
        <path id="Vector_4" class="st0" d="M32.67,58.04v-.09c.18-.88.19-1.81.6-2.63.05-.11.11-.21.17-.31.36-.55.57-1.16.55-1.84,0-.28.07-.52.3-.67.22-.14.38-.1.51.14.03.05.06.11.06.17.02.44.25.78.44,1.13.26.46.48.94.63,1.45.16.56.4,1.07.76,1.5.54.64.72,1.43.82,2.25.02.18-.03.39-.1.56-.18.46-.36.91-.48,1.39-.1.39-.26.76-.42,1.12-.09.22-.18.25-.38.13-.34-.19-.61-.46-.73-.87-.06-.2-.11-.41-.19-.6-.08-.18-.18-.35-.29-.51-.06-.1-.17-.17-.29-.11-.11.06-.08.19-.06.3.02.17.04.34.05.51,0,.11-.02.23-.13.28-.12.06-.22,0-.3-.09-.09-.11-.18-.23-.25-.36-.36-.69-.72-1.39-1.07-2.09-.13-.25-.23-.51-.22-.75"/>
        <path id="Vector_5" class="st0" d="M45.37,42.55c-.16.04-.43.06-.67.15-.79.28-1.6.4-2.43.42-.55.01-1.09.12-1.62.27-.25.07-.51.12-.76.15-.12.02-.26,0-.39-.02-.1-.02-.17-.08-.16-.21,0-.12.07-.18.18-.2.06,0,.13,0,.19-.02.26-.06.52-.13.78-.2.22-.06.43-.15.64-.18.33-.06.63-.19.84-.49.38-.53.92-.72,1.49-.86.47-.12.93-.25,1.4-.38.22-.06.43-.12.65-.17.34-.08.65,0,.92.23.32.28.64.56.91.89.43.52.93.9,1.54,1.16.55.24,1.07.55,1.45,1.08.26.36.57.69.84,1.05.08.1.12.23.16.35.04.15-.05.25-.19.19-.1-.04-.19-.12-.28-.2-.31-.27-.62-.55-.93-.82-.28-.24-.6-.4-.95-.47-.18-.04-.36-.1-.52-.19-.56-.33-1.16-.57-1.67-1.01-.37-.32-.82-.51-1.41-.51"/>
        <path id="Vector_6" class="st0" d="M36.72,44.42c-.43.32-.64.81-.88,1.27-.19.35-.44.59-.82.65-.18.03-.36.12-.54.14-.24.02-.48,0-.72-.02-.09,0-.19-.09-.26-.16-.25-.23-.48-.47-.72-.71-.14-.14-.29-.24-.5-.24-.05,0-.1-.06-.15-.09.04-.04.08-.11.13-.13.17-.08.33-.04.48.05.2.11.4.21.59.33.56.35,1.14.3,1.72.05.08-.03.14-.12.2-.2.25-.28.48-.59.75-.85.12-.12.29-.18.45-.23.07-.03.17.03.25.04,0,.03.01.05.02.08Z"/>
        <path id="Vector_7" class="st0" d="M44.79,13.9c.02.27.05.54.05.81,0,.3,0,.6-.02.91,0,.12-.03.26-.18.27-.13,0-.24-.07-.28-.2-.06-.22-.12-.45-.13-.68-.03-.37-.05-.75-.01-1.12.03-.29.13-.59.23-.87.07-.18.25-.17.34.01.03.07.05.15.05.23,0,.21-.01.42-.02.64h-.02"/>
      </g>
    </g>
  </g>
</svg>