<?xml version="1.0" encoding="UTF-8"?>
<svg id="Layer_1" xmlns="http://www.w3.org/2000/svg" version="1.1" viewBox="0 0 80 80">
  <defs>
    <style>
      .st0 {
        fill: currentColor;
      }
    </style>
  </defs>
  <g id="EGG-ALIEN">
    <g id="Layer_2-2">
      <g id="ALIEN_-_FULL_COLOUR">
        <path id="Vector" class="st0" d="M65.15,35.03c2.17-.78,3.66-3.25,3.53-6.05-.11-2.44-1.15-4.17-2.99-5.23-.12-.07-.2-.14-.21-.31-.06-.64-.2-1.25-.4-1.86-.05-.16-.04-.27.05-.42.91-1.41,1.25-3,1.02-4.74-.47-3.59-3.39-5.87-6.35-5-.94.27-1.75.82-2.45,1.65-.02-.04-.03-.07-.05-.09-1.77-2.31-4.37-3.03-6.83-1.89-.13.06-.2,0-.29-.08-1.41-1.17-2.99-1.73-4.69-1.41-2.59.5-4.45,2.21-5.44,5.16-.05.16-.1.18-.24.14-.33-.11-.67-.14-1.01-.17-1.39-.15-2.77-.09-4.16.15-1.38.23-2.72.64-4.07,1.05-3.58,1.09-6.69,3.17-9.35,6.23-1.76,2.02-3.17,4.35-4.21,6.99-.92,2.31-1.55,4.73-1.84,7.27-.2,1.68-.21,3.36-.14,5.05.15,3.37.71,6.63,1.65,9.81.8,2.7,1.95,5.19,3.14,7.65,1.59,3.29,3.59,6.18,6.17,8.45.86.76,1.76,1.45,2.82,1.76,1.3.37,2.61.42,3.93.2,2.27-.37,4.45-1.1,6.53-2.23,1.96-1.07,3.73-2.5,5.51-3.93,1.64-1.32,3.12-2.87,4.55-4.48,1.38-1.55,2.68-3.18,3.72-5.08.08-.15.15-.11.25-.06,1.18.55,2.38.58,3.6.23,2.51-.74,4.33-3.25,4.58-6.32.02-.26.09-.41.3-.52.73-.4,1.37-.95,1.93-1.63,2.21-2.7,2.72-6.59,1.31-9.95-.09-.22-.04-.26.12-.32h0ZM61.06,15.56c.87,0,1.53.81,1.53,1.86,0,1.03-.7,1.85-1.58,1.84-.85,0-1.54-.91-1.51-1.83.03-1.08.67-1.88,1.55-1.87h0ZM61.85,23.8c.07.38.09.77.09,1.16,0,1.78-.64,3.18-1.79,4.27-.15.14-.15.22-.04.4.54.95.59,1.94.11,2.93-.46.95-1.19,1.42-2.11,1.35-1.56-.12-2.48-1.99-2.01-3.53.06-.2.04-.28-.14-.36-1.73-.78-2.75-2.27-2.99-4.45-.3-2.65,1.23-5.22,3.45-5.84,2.45-.68,4.88,1.14,5.44,4.07h0ZM54.82,33.17c0,2.69-1.9,4.77-4.08,4.55-1.53-.15-2.79-1.56-3.07-3.43-.43-2.84,1.52-5.46,3.94-5.3,1.46.1,2.74,1.42,3.1,3.19.07.36.1.72.11.99ZM52.76,14.88c1.39,0,2.43,1.25,2.43,2.92,0,1.58-1.12,2.89-2.46,2.89-1.34,0-2.43-1.32-2.43-2.93s1.1-2.88,2.46-2.88ZM42.05,19.92c.42-.29.85-.57,1.32-.74.16-.06.17-.14.12-.32-.76-2.5.57-4.63,2.48-4.98,1.42-.27,2.87.83,3.28,2.64.28,1.25.05,2.39-.66,3.37-.14.19-.15.3.03.45,1.33,1.2,2.11,2.81,2.36,4.77.13.99.05,1.97-.18,2.93-.05.19-.12.24-.28.23-1.42-.08-2.63.48-3.59,1.74-.62.82-.97,1.8-1.09,2.89-.02.2-.08.28-.25.3-3.23.35-6.07-2.32-6.52-6.13-.04-.32-.07-.64-.06-.96.1-2.7,1.05-4.8,3.05-6.19h0ZM50.8,39.41c-.07-.08-.15.03-.21.07-.63.43-.91,1.39-.71,2.26.29,1.28,1.68,2.05,2.71,1.52.07-.04.17-.14.24-.06.07.07.02.2,0,.3-.57,3.12-1.66,5.96-3.25,8.53-.81,1.3-1.77,2.44-2.75,3.55-1.44,1.62-2.94,3.17-4.6,4.46-1.34,1.04-2.66,2.12-4.1,2.95-2,1.15-4.11,1.86-6.32,2.13-.68.08-1.37.04-2.04-.14-.44-.11-.82-.4-1.18-.7-2.09-1.71-3.71-3.95-5.09-6.46-.24-.44-.46-.9-.69-1.35-.07-.13-.06-.2.08-.26,1.13-.44,1.61-1.46,1.66-2.78.06-1.75-.32-3.41-.95-4.98-.82-2.01-2.04-3.65-3.44-5.12-.39-.41-.79-.79-1.24-1.1-.14-.09-.22-.22-.23-.41-.05-1.08-.11-2.16-.05-3.24.13-2.59.66-5.06,1.59-7.39,2.08-5.19,5.43-8.75,10-10.62,1.91-.78,3.87-1.31,5.89-1.55.91-.11,1.82-.02,2.73.05.17.01.34.09.49.24-.46.36-.89.74-1.27,1.19-1.19,1.37-1.83,3.06-2.06,5-.42,3.47,1.24,6.98,3.62,8.47,1.94,1.21,3.94,1.4,6,.48.19-.08.24-.03.28.17.18.9.49,1.72,1.03,2.39,1.13,1.39,2.5,1.87,4.08,1.42,1-.28,1.94.15,2.42,1.16.42.88.22,1.95-.48,2.49-.72.55-1.59.35-2.1-.49-.32-.52-.37-1.08-.18-1.67.03-.09.07-.17.09-.26.02-.08.11-.16.05-.23h0ZM55.36,49.7c-1.26,0-2.35-1.4-2.35-2.98,0-1.55,1.15-2.88,2.48-2.88,1.33,0,2.41,1.33,2.41,2.95,0,1.62-1.14,2.92-2.55,2.91ZM58.56,43.53c-2.02,0-3.6-1.91-3.6-4.34s1.63-4.28,3.62-4.27c1.73,0,3.62,1.74,3.61,4.4-.02,2.31-1.64,4.22-3.63,4.21ZM63.59,31.01c-.8-.01-1.42-.79-1.41-1.75.01-1.02.63-1.73,1.5-1.71.79.01,1.4.79,1.38,1.77-.01.96-.66,1.71-1.48,1.7Z"/>
        <path id="Vector_2" class="st0" d="M45.73,37.37c-.23-.53-.6-.84-1.05-.99-.89-.31-1.8-.34-2.72-.15-1.53.32-2.97.92-4.33,1.79-.85.54-1.67,1.14-2.44,1.82-2.12,1.88-3.8,4.22-5.06,6.99-.81,1.76-1.33,3.62-1.34,5.65-.01.95.14,1.86.44,2.73.13.39.36.63.72.65.49.04.98.11,1.48.07,1.02-.1,2.05-.22,3.03-.58,1.73-.64,3.42-1.42,5.02-2.43,1.02-.65,1.97-1.39,2.87-2.25.86-.82,1.64-1.75,2.3-2.8.66-1.03,1.23-2.13,1.6-3.36.45-1.51.6-3.06.32-4.64-.15-.89-.48-1.7-.83-2.5h0Z"/>
      </g>
    </g>
  </g>
</svg>