<?xml version="1.0" encoding="UTF-8"?>
<svg id="Layer_1" xmlns="http://www.w3.org/2000/svg" version="1.1" viewBox="0 0 80 80">
  <defs>
    <style>
      .st0 {
        fill: currentColor;
      }
    </style>
  </defs>
  <g id="EGG-HUMAN">
    <g id="Layer_2-2">
      <g id="uCgvpx">
        <path id="Vector" class="st0" d="M55.61,67.41c-.91.48-1.81.98-2.73,1.44-1.12.57-2.28,1.01-3.52,1.15-1.07.12-2.13.09-3.18-.14-.63-.14-1.25-.3-1.87-.48-.49-.15-.97-.34-1.45-.52-.79-.3-1.6-.54-2.42-.72-.8-.17-1.61-.34-2.38-.66-.64-.27-1.23-.62-1.79-1.03-.53-.39-1-.84-1.4-1.39-.36-.49-.64-1.03-.84-1.63-.34-1.05-.34-2.1-.12-3.18.19-.95.6-1.77,1.07-2.57.2-.35.38-.73.52-1.11.3-.82.52-1.68.66-2.55.12-.71.26-1.42.38-2.14.11-.6-.09-1.11-.43-1.57-.43-.59-1.01-.99-1.54-1.45-.68-.59-1.32-1.22-1.83-1.98-.23-.35-.45-.73-.62-1.12-.26-.61-.43-1.26-.41-1.93.01-.85.3-1.59.8-2.23.38-.48.84-.84,1.31-1.18.44-.32.85-.71,1.28-1.06.3-.24.6-.51.93-.68.34-.18.71-.31,1.09-.36.49-.06.83-.29,1.1-.71.38-.57.76-1.16,1.25-1.63.35-.34.72-.64,1.13-.9,1.05-.66,2.2-.88,3.38-.93.59-.03,1.17-.17,1.75-.33,1.01-.28,2.02-.57,3.07-.51.46.03.93.12,1.37.27.59.19,1.16.47,1.74.7.22.08.46.15.65-.03.14-.13.28-.32.34-.51.26-.83.6-1.63.93-2.43.56-1.35.88-2.77.84-4.25-.02-.8-.16-1.61-.29-2.4-.19-1.18-.42-2.35-.62-3.53-.21-1.21-.3-2.44-.29-3.67.01-.82.06-1.65.33-2.42.25-.7.63-1.28,1.21-1.7.7-.51,1.45-.58,2.23-.29.96.35,1.73.99,2.34,1.87.37.54.55,1.16.55,1.84,0,1.27.03,2.53,0,3.8-.03,1.04-.11,2.07-.2,3.11-.08.86-.22,1.71-.33,2.56-.1.78-.14,1.55.03,2.32.07.32.17.63.28.94.17.51.19,1.03.12,1.56-.1.79-.39,1.51-.72,2.23-.42.9-.55,1.85-.27,2.84.14.51.38.96.62,1.41.25.47.49.96.69,1.47.31.81.58,1.65.66,2.54.04.46.03.92.05,1.38,0,.15.04.3.09.44.1.27.23.53.35.8.29.67.5,1.36.64,2.08.25,1.33.47,2.66.72,3.99.1.52.27,1.03.41,1.54.15.56.34,1.1.45,1.67.15.73.28,1.48.37,2.22.12,1,.08,2-.13,2.98-.17.81-.42,1.59-.81,2.3-.37.68-.84,1.28-1.33,1.85-.68.8-1.41,1.52-2.18,2.21-.46.41-.94.79-1.49,1.07-.85.43-1.69.89-2.54,1.34h0ZM58.34,44.54c-.07-.17-.15-.34-.22-.5-.15-.33-.38-.57-.69-.7-.64-.27-1.14-.77-1.64-1.24-.33-.31-.6-.69-.91-1.03-.34-.37-.71-.69-1.19-.82-.19-.05-.37-.08-.56-.13-.37-.08-.64-.35-.94-.56-.4-.29-.79-.58-1.26-.7-.4-.1-.8-.21-1.2-.28-.5-.09-1.01-.18-1.52-.2-.45-.01-.91.05-1.35.13-.38.06-.74.2-1.12.28-.29.06-.6.07-.86.25-.27.19-.54.37-.8.56-.07.05-.15.1-.21.17-.38.38-.71.81-.96,1.3-.18.34-.42.59-.75.76-.19.1-.38.23-.53.38-.23.23-.39.53-.49.85-.07.2-.21.32-.34.29-.14-.04-.23-.19-.19-.41.07-.31.15-.62.27-.9.11-.26.33-.48.41-.75.18-.58.45-1.1.83-1.54.22-.26.44-.53.68-.76.14-.13.35-.16.49-.3.34-.33.73-.56,1.14-.76.34-.17.61-.46.82-.79.21-.32.02-.54-.25-.58-.54-.09-.95.25-1.37.5-.3.18-.57.41-.86.6-.3.2-.61.36-.9.57-.4.29-.66.7-.8,1.22-.15.57-.35,1.12-.53,1.68-.02.06-.03.12-.04.18-.09.35-.14.71-.27,1.03-.18.46-.42.9-.61,1.36-.08.19-.14.41-.15.62-.03.6-.2,1.16-.39,1.71-.17.47-.22.97-.23,1.47-.01.34-.03.68-.06,1.02-.03.24-.12.48-.13.72-.02.5-.16.96-.35,1.4-.13.31-.23.62-.26.96-.04.54-.2,1.04-.55,1.44-.18.2-.26.45-.25.73,0,.27.01.55-.11.8-.16.31-.15.65-.16.99-.01.4-.1.79-.32,1.11-.29.4-.55.8-.76,1.26-.17.37-.41.69-.51,1.1-.08.35-.17.69-.28,1.03-.11.39-.25.77-.36,1.16-.2.71-.08,1.39.21,2.04.05.12.14.18.26.08.07-.06.14-.12.18-.19.12-.26.25-.52.33-.79.09-.28.11-.59.21-.86.25-.72.52-1.43.78-2.15.13-.35.21-.72.35-1.07.08-.2.2-.39.34-.53.12-.12.23-.05.23.14,0,.3.02.61-.01.9-.03.22-.09.46-.2.65-.29.49-.47,1.01-.6,1.57-.06.26-.11.54-.23.77-.17.32-.21.66-.25,1.01-.03.25-.1.49-.18.73-.07.23-.2.43-.27.66-.17.52-.07.71.35,1.03.23.18.39.07.48-.18.09-.22.14-.47.25-.67.28-.51.4-1.09.59-1.64.09-.25.18-.5.29-.74.12-.28.31-.55.39-.84.11-.4.16-.83.19-1.24.04-.41.01-.83.06-1.24.04-.37.04-.73-.04-1.1-.06-.29-.08-.58.01-.88.06-.18.06-.38.09-.57.04-.24.05-.48.12-.71.14-.49.25-.97.24-1.49,0-.35.1-.66.36-.91.11-.11.22-.27.26-.43.11-.42.19-.86.26-1.29.05-.33.04-.67.11-.99.11-.52.27-1.03.31-1.57.03-.37.15-.71.39-.99.18-.21.29-.45.34-.73.06-.35.16-.7.22-1.05.06-.31.08-.62.15-.93.09-.36.16-.74.33-1.05.22-.41.52-.76.81-1.12.45-.57,1.01-1,1.55-1.46.35-.3.72-.59,1.07-.88.4-.33.83-.59,1.33-.66.43-.06.83-.2,1.22-.41.17-.09.38-.11.57-.12.2-.01.41.02.62.04.44.03.89.06,1.31.25.31.14.6.32.92.46.48.2.97.36,1.48.46.47.09.87.39,1.25.68.48.36.94.75,1.39,1.15.35.31.67.66,1.01.99.25.24.51.47.75.72.32.32.61.68.79,1.12.17.41.38.81.5,1.24.11.38.22.76.39,1.12.02.03.02.07.03.11.07.35.15.7.32,1.02.13.25.25.52.39.77.03.06.12.09.19.13.04-.08.12-.17.1-.24-.08-.39-.16-.79-.28-1.16-.11-.33-.29-.63-.32-1-.01-.13-.08-.25-.12-.38-.06-.2-.13-.39-.16-.6-.06-.56-.07-1.13-.4-1.61h0ZM50.09,47.66c-.31-.43-.58-.85-.89-1.24-.32-.4-.66-.76-1-1.14-.22-.24-.45-.2-.6.08-.05.1-.1.2-.13.31-.08.32-.14.66-.24.97-.27.83-.79,1.36-1.61,1.43-.68.06-1.36.05-2.03.07-.58.02-1.15.02-1.73.03-.43.01-.76.21-.8.73-.04.41-.07.83-.1,1.24-.03.46.15.68.49.77.29.07.58.13.87.19.68.14,1.37.3,2.06.43.54.1,1.09.23,1.64.1.64-.16,1.29-.18,1.94-.17.59,0,1.18.04,1.76.06.57.01.93-.37.92-1,0-.33-.05-.67-.11-.99-.13-.62-.28-1.24-.43-1.85h0ZM53.68,49.14c.32.58.5,1.21.63,1.87.1.52.2,1.04.27,1.57.05.35.06.71.07,1.06.01.39,0,.79,0,1.18,0,.31.02.63.02.94,0,.19-.01.38,0,.57.01.38.03.77.05,1.15.02.29.02.59.07.88.06.34.18.68.24,1.02.06.33.07.67.1,1.01.01.17.04.34.02.51-.04.47-.06.95-.17,1.4-.1.43-.25.86-.46,1.23-.29.5-.47,1.04-.6,1.6-.05.23-.06.48-.15.68-.19.4-.42.76-.64,1.14-.09.17-.2.32-.28.49-.08.17,0,.27.17.24.34-.06.62-.24.9-.44.35-.26.46-.7.65-1.07.21-.41.39-.83.61-1.22.25-.43.42-.89.43-1.4,0-.36.11-.67.25-.99.17-.4.32-.82.43-1.25.15-.61.28-1.23.59-1.76.3-.51.37-1.06.39-1.64.01-.54.04-1.08.07-1.62.02-.3.07-.59.08-.88.01-.45,0-.91,0-1.36,0-.72-.08-1.43-.31-2.11-.1-.29-.12-.61-.18-.92-.04-.21-.07-.43-.13-.64-.05-.18-.15-.35-.19-.53-.09-.44-.25-.84-.43-1.24-.07-.14-.1-.31-.14-.47-.2-.73-.46-1.44-.96-2-.22-.24-.43-.49-.68-.69-.2-.16-.36-.32-.47-.56-.07-.18-.16-.36-.27-.51-.16-.22-.36-.39-.64-.4-.23-.01-.37.15-.34.4.03.26.18.45.34.62.23.26.44.53.57.88.15.43.42.76.7,1.1.3.35.53.76.8,1.13.16.21.25.42.28.69.02.23.07.46.13.68.11.41.26.8.36,1.21.14.58.23,1.18.35,1.76.14.65.16,1.31.16,1.97,0,.27-.05.54-.05.81,0,.38.04.77.04,1.15.01.7,0,1.41.02,2.11,0,.34.03.68-.08,1.01-.06.17-.16.3-.34.31-.18,0-.28-.12-.36-.28-.13-.27-.14-.56-.12-.85.03-.44.11-.87.14-1.31.04-.41.1-.82.06-1.22-.09-.93-.06-1.87-.24-2.79-.08-.42-.08-.86-.16-1.28-.14-.73-.29-1.44-.63-2.1-.11-.21-.17-.44-.23-.68-.16-.62-.37-1.21-.81-1.65-.19-.19-.4-.37-.61-.55-.05-.04-.17-.06-.2-.02-.05.05-.08.16-.06.24.03.14.07.3.16.42.22.3.43.61.57.97.06.16.14.31.21.47h0ZM57.63,46.71c-.11-.2-.22-.41-.33-.61-.09-.15-.18-.31-.28-.46-.1-.16-.18-.32-.3-.46-.19-.22-.41-.4-.6-.62-.3-.34-.62-.65-.84-1.07-.21-.39-.58-.61-.94-.81-.07-.04-.2-.04-.26,0-.05.04-.05.18-.05.27,0,.07.02.16.06.21.16.22.3.45.49.62.28.24.5.5.63.86.04.11.1.22.16.32.29.47.62.93.88,1.43.3.58.54,1.2.81,1.8.02.05.04.1.06.16.09.27.17.55.26.82.05.15.1.31.14.47.08.36.15.72.24,1.08.11.42.26.84.34,1.27.09.47.12.95.16,1.44.03.28.02.57.04.84.05.56.17,1.12.17,1.68,0,.55-.09,1.1-.17,1.64-.04.29-.12.56-.08.86.08.5-.01.97-.28,1.4-.08.13-.16.29-.18.44-.06.36-.09.73-.15,1.1-.05.34-.1.67-.18,1-.1.4-.23.79-.35,1.18-.14.46-.27.92-.41,1.38-.04.14-.12.28-.16.42-.06.22.04.33.24.28.51-.13.86-.46,1.04-1,.11-.32.22-.65.47-.9.21-.22.28-.52.33-.84.08-.54.18-1.08.29-1.61.11-.56.26-1.12.35-1.68.07-.47.08-.95.12-1.43.03-.32.11-.63.12-.95.02-.7.02-1.39.01-2.09,0-.44-.04-.88-.06-1.32-.03-.42-.07-.84-.09-1.26-.03-.52-.13-1.03-.37-1.49-.05-.09-.08-.2-.1-.3-.09-.39-.19-.77-.38-1.12-.29-.55-.44-1.16-.55-1.77-.08-.41-.11-.83-.32-1.2h0ZM45.74,68.72c.07-.08.15-.14.19-.22.17-.33.25-.69.25-1.07,0-.43.05-.84.19-1.25.11-.32.19-.65.31-.96.15-.38.14-.77.07-1.15-.1-.58-.09-1.13.11-1.69.15-.43.25-.88.37-1.32.06-.25.11-.52.15-.78.02-.17.04-.34.04-.5-.02-.55.01-1.08.18-1.6.13-.42.25-.85.31-1.29.11-.78.16-1.57.25-2.36.06-.53.13-1.06.19-1.59.04-.35-.07-.51-.39-.55-.11-.01-.22,0-.33,0-.27.04-.36.13-.39.44-.04.45-.07.9-.08,1.36-.02.53-.13,1.02-.36,1.49-.18.37-.33.77-.35,1.21-.01.34-.07.66-.24.95-.12.2-.16.43-.14.67.04.43.03.84-.26,1.19-.12.15-.2.36-.26.55-.09.29-.14.59-.23.88-.09.28-.16.56-.13.85.03.3.03.61.12.89.22.65.23,1.28.08,1.95-.11.5-.2,1-.3,1.5-.05.3-.08.6-.23.87-.11.2-.22.41-.26.62-.09.43-.14.62.38.79.13.04.27.1.4.12.12.02.24,0,.35,0ZM47.85,69.01c.09-.13.2-.3.32-.47.33-.44.44-.99.6-1.52.04-.12.02-.26.02-.39,0-.25-.03-.51.01-.75.07-.38.18-.76.3-1.13.18-.56.28-1.13.34-1.72.02-.21.08-.42.1-.63.06-.77.09-1.55.17-2.31.06-.56.16-1.12.26-1.68.15-.85.22-1.71.2-2.58,0-.19-.01-.38-.05-.56-.1-.45-.15-.9-.12-1.36.03-.35.01-.7,0-1.05-.02-.27-.16-.39-.4-.4-.32-.01-.41.21-.42.49-.03.53-.04,1.06-.07,1.58-.02.31-.09.61-.13.91-.02.2-.03.4-.04.6,0,.28,0,.56-.02.84-.03.39-.07.79-.12,1.18-.06.52-.13,1.04-.2,1.55-.03.17-.08.35-.17.49-.19.3-.32.61-.27.99,0,.08,0,.15.01.23.03.53-.16,1-.28,1.5-.06.23-.09.49-.08.73.04.66.15,1.32.1,1.99-.03.36-.11.66-.31.94-.16.22-.34.44-.4.7-.12.51-.17,1.04-.22,1.56,0,.08.08.22.15.26.21.11.44.11.73,0h0ZM60.44,46.41s-.03,0-.05.01c-.06-.14-.11-.31-.2-.43-.17-.23-.36-.45-.56-.65-.13-.12-.28-.03-.29.16,0,.12.02.25.06.36.21.49.42.98.64,1.46.14.3.23.62.24.96,0,.24.02.49.08.73.13.51.11,1,.02,1.51-.1.6-.3,1.19-.21,1.83.07.46.03.94.08,1.41.05.5.13.99.22,1.48.07.37.13.73.08,1.1-.02.15-.06.3-.07.45-.04,1.02-.09,2.04-.26,3.04-.07.41-.06.84-.12,1.26-.07.46-.16.92-.36,1.35-.13.28-.24.58-.21.91.02.19.1.25.25.18.36-.19.61-.49.81-.85.18-.32.15-.69.23-1.04.14-.61.29-1.21.44-1.81.03-.12.11-.23.13-.35.05-.33.1-.66.13-.99.04-.48.05-.97.08-1.45.01-.18.07-.37.02-.54-.08-.3-.23-.59-.34-.88-.09-.23-.14-.46-.11-.72.05-.37.09-.75.1-1.12,0-.38-.03-.75-.04-1.13,0-.22.02-.44,0-.66-.08-.86-.15-1.72-.14-2.6,0-.4-.06-.81-.13-1.21-.04-.21-.16-.4-.22-.6-.11-.38-.21-.77-.32-1.16ZM38,39.05s.01.04.02.06c-.34.1-.51.37-.59.71-.07.28-.11.57-.19.85-.2.69-.4,1.38-.63,2.06-.14.41-.36.79-.41,1.24-.06.45-.19.89-.2,1.34-.03.85-.2,1.67-.3,2.51-.04.28-.1.58.09.8.29.32.6.62.92.9.12.11.25.04.31-.13.06-.17.12-.35.19-.51.39-.91.59-1.87.59-2.87,0-.37-.04-.75,0-1.11.03-.27.16-.53.24-.8.17-.51.34-1.02.51-1.53.12-.34.24-.69.35-1.03.04-.12.06-.25.1-.36.06-.18.13-.35.19-.52.09-.32.17-.65.26-.97.05-.17.11-.34.13-.51.03-.2.05-.41.04-.62,0-.18-.13-.23-.26-.11-.08.07-.14.17-.23.23-.15.1-.31.22-.48.27-.2.07-.42.08-.64.12h0ZM59.94,41.75c.2-.14.18-.4.06-.55-.23-.29-.49-.55-.74-.8-.48-.49-1.07-.8-1.63-1.16-.61-.39-1.24-.71-1.92-.93-.65-.21-1.31-.41-1.96-.63-.32-.11-.64-.25-.96-.36-1.08-.38-2.16-.74-3.24-1.12-.04-.01-.08-.03-.12-.03-.61-.05-1.23-.09-1.84-.14-.35-.03-.68.1-1.01.2-.18.05-.36.13-.51.24-.15.1-.12.31.05.4.08.04.18.07.27.06.41-.03.82,0,1.24.08.4.08.82.06,1.22.13.59.1,1.17.23,1.75.37.31.07.61.18.91.29.21.08.42.19.62.29.14.07.29.14.41.24.41.35.9.5,1.38.67.26.09.53.1.8.01.11-.03.23-.04.34-.03.61.07,1.19.3,1.71.62.54.32,1.03.73,1.54,1.11.23.17.45.35.67.52.22.16.43.34.65.48.09.06.21.06.32.08h0ZM45.41,42.06c-.36.14-.55.35-.75.57-.25.27-.55.5-.81.76-.23.23-.22.43,0,.66.14.14.27.3.22.5-.07.33-.16.66-.28.98-.09.24-.25.29-.44.21-.17-.07-.22-.21-.16-.47.03-.17.08-.33.09-.5,0-.07-.04-.18-.08-.2-.07-.03-.2-.03-.24.02-.14.19-.3.39-.38.62-.11.3-.15.63-.21.96-.06.32,0,.5.34.5.14,0,.28.09.42.14.07.03.14.08.22.09.19.03.32-.12.44-.39.25-.58.5-1.17.79-1.73.2-.4.45-.78.7-1.14.19-.27.41-.56.67-.72.53-.33,1.09-.61,1.66-.84.34-.14.7-.26,1.07-.23.37.03.74.04,1.12.05.1,0,.21-.03.31-.02.35.04.71.1,1.06.13.08,0,.2-.05.25-.12.03-.05-.01-.21-.07-.26-.27-.2-.55-.4-.84-.55-.69-.36-1.44-.31-2.18-.35-.28-.01-.55-.03-.83,0-.16,0-.35.03-.48.12-.32.23-.6.52-.96.67-.02,0-.03.03-.05.05-.23.19-.47.37-.62.5h0ZM53.16,61.8s-.03,0-.05,0c-.04.08-.09.16-.13.24-.21.38-.42.77-.55,1.2-.14.48-.3.96-.45,1.44-.05.16-.09.33-.13.5-.07.31-.13.61-.37.84-.27.26-.53.28-.81.13-.17-.1-.31-.35-.16-.6.5-.89.89-1.82.82-2.89-.03-.44-.11-.88-.17-1.32-.01-.06-.09-.13-.15-.16-.03-.01-.11.06-.13.12-.05.1-.09.21-.1.31-.05.63-.17,1.25-.45,1.8-.23.44-.26.87-.24,1.35.02.55.2,1.1.07,1.66,0,.02.01.05.02.07.04.51.04,1.01-.15,1.49-.06.15-.1.31-.12.48-.01.1-.08.23.07.3.13.06.22,0,.3-.11.09-.13.16-.28.26-.4.42-.5.85-.99,1.26-1.49.21-.25.39-.52.5-.86.08-.24.19-.48.33-.68.17-.25.26-.52.31-.83.11-.63.09-1.27.26-1.89.06-.22-.01-.48-.02-.72h0ZM43.15,56.98c.09.06.18.18.27.17.07,0,.14-.15.2-.23.02-.02.02-.06.03-.09.1-.19.19-.39.31-.56.11-.17.29-.19.44-.05.1.09.18.21.25.34.14.25.36.32.5.13.06-.09.11-.21.13-.32.07-.29.11-.6.21-.88.11-.34.3-.66.41-1.01.14-.47.25-.95.35-1.44.02-.11,0-.29-.08-.37-.22-.23-.78,0-.85.34-.02.09-.02.19-.04.28-.09.4-.16.8-.28,1.2-.1.35-.47.46-.67.21-.08-.11-.12-.29-.12-.44,0-.47.03-.93.04-1.4,0-.28-.14-.44-.42-.47-.3-.02-.44.08-.46.37-.02.41-.02.83,0,1.24.03.73,0,1.46-.17,2.17-.06.25-.15.5-.05.8h0ZM33.22,45.89s.06.08.11.15c.13.19.25.39.38.58.08.11.16.21.26.3.05.04.14.03.21.04,0-.08.04-.18,0-.23-.1-.14-.22-.27-.36-.37-.13-.1-.19-.21-.19-.38,0-.53.22-.65.58-.77.22-.08.41-.17.47-.45.04-.18.09-.37.19-.52.24-.36.38-.74.4-1.18.01-.24,0-.5.05-.73.1-.44.25-.86.37-1.3.04-.15.07-.31.07-.46,0-.09-.04-.24-.1-.27-.08-.04-.2,0-.29.04-.13.07-.23.19-.34.28-.23.19-.46.38-.69.56-.25.19-.47.39-.49.75,0,.11-.04.21-.07.31-.13.35-.18.71-.17,1.08,0,.13-.02.27-.06.39-.12.38-.26.75-.38,1.13-.1.33-.12.67.05,1.05h0ZM38.3,66.29s.04-.03.06-.06c.22-.24.27-.55.32-.86.04-.32.11-.63.38-.81.23-.15.37-.37.46-.64.04-.11.08-.21.13-.31.19-.38.42-.73.52-1.16.08-.37.17-.73.24-1.11.03-.18.01-.37-.13-.5-.3-.29-.62-.45-.95-.05-.41.49-.56,1.11-.65,1.73-.06.41,0,.84,0,1.26,0,.26.02.54-.2.74-.21.19-.35.41-.38.71-.03.3-.06.61-.07.92,0,.14.14.21.28.14h0ZM41.21,51.92c-.25.17-.37.34-.4.58-.02.23-.01.47-.05.7-.04.24-.09.48-.18.7-.17.42-.36.84-.41,1.31-.02.17,0,.32.16.41.15.08.24-.04.35-.13.11-.09.23-.16.35-.24.11-.07.21-.04.28.08.12.19.23.39.34.59.07.13.15.12.21,0,.09-.17.17-.35.23-.54.09-.33.16-.66.24-.99.06-.26.13-.51.04-.78-.12-.38-.15-.78-.13-1.19.01-.22-.07-.34-.26-.42-.08-.03-.16-.05-.24-.06-.2-.02-.4-.02-.54-.03h0ZM44.58,62.62c-.12-.23-.24-.28-.43-.14-.1.08-.19.2-.25.32-.12.25-.21.52-.31.79-.08.22-.18.44-.23.67-.13.55-.23,1.11-.38,1.66-.13.46-.32.89-.47,1.34-.05.16-.08.35.1.45.19.11.4.21.61.27.25.07.49-.02.55-.44.05-.32.07-.64.12-.95.1-.68.21-1.35.45-1.99.2-.53.26-1.08.29-1.63,0-.11-.03-.22-.04-.33h0ZM53.63,54.54s-.02,0-.03,0c-.01-.03-.02-.06-.04-.09-.08-.15-.29-.28-.4-.23-.14.06-.19.2-.19.35,0,.3.03.6.03.9-.01,1.15-.03,2.3-.04,3.44,0,.27-.01.55.02.82.05.36.13.71.2,1.06,0,.04.04.09.06.09.02,0,.07-.03.09-.06.32-.34.46-.76.47-1.24.02-.6.05-1.19.1-1.79.05-.67-.02-1.35-.07-2.03-.03-.42-.13-.84-.2-1.26h0ZM42.07,62.81s.02.01.03.02c.16-.18.33-.35.47-.54.31-.4.61-.79,1.05-1.01.21-.1.36-.3.44-.53.12-.36.02-.62-.35-.65-.03,0-.07,0-.1-.01-.26-.05-.38-.19-.42-.47-.04-.3.02-.57.14-.82.08-.17.18-.32.13-.53-.03-.14-.1-.18-.21-.12-.04.03-.08.07-.11.12-.26.39-.54.77-.78,1.18-.1.17-.16.4-.18.6-.04.35-.04.72-.05,1.07-.02.41-.09.8-.42,1.07-.07.06-.12.16-.15.25-.09.23.02.46.23.46.1,0,.19-.05.28-.08h0ZM51.24,52.24s-.05.03-.07.04c-.01.11-.04.22-.04.33,0,.59.03,1.18.04,1.77,0,.5,0,1-.02,1.49-.04.98-.16,1.97-.09,2.95.02.35.02.7.04,1.05,0,.08.08.15.12.23.06-.05.14-.1.17-.16.22-.48.35-.99.45-1.53.13-.74.17-1.48.09-2.23-.04-.37-.06-.75-.09-1.12-.04-.41-.05-.83-.13-1.23-.08-.46-.29-.89-.33-1.36,0-.08-.09-.15-.14-.23h0ZM51.76,48.92s.03-.01.05-.02c.11.38.23.76.34,1.13.07.24.16.49.21.74.11.49.3.95.57,1.36.14.22.37.26.53.13.1-.08.15-.38.08-.57-.07-.21-.18-.42-.23-.64-.13-.55-.24-1.1-.35-1.65-.08-.42-.24-.8-.54-1.1-.26-.25-.51-.51-.77-.75-.14-.13-.29-.24-.45-.34-.06-.03-.17-.02-.22.03-.04.04-.06.16-.04.23.04.13.1.27.18.37.27.32.51.66.64,1.08h0ZM58.99,18.09c.28-.15.36-.74.19-.95-.09-.11-.23-.23-.35-.25-.53-.07-1.06-.12-1.6-.15-.19-.01-.4.08-.58.03-.39-.1-.76-.26-1.14-.39-.1-.03-.21-.06-.32-.06-.19,0-.27.16-.21.35.09.25.24.44.46.55.61.32,1.26.49,1.92.62.37.07.74.14,1.11.2.2.03.4.03.52.04h0ZM60.54,44.17c-.16-.38-.4-.68-.71-.92-.24-.19-.53-.33-.73-.56-.55-.63-1.19-1.15-1.82-1.67-.24-.19-.51-.34-.78-.48-.11-.06-.25-.08-.34.05-.1.14,0,.26.05.38.02.04.07.07.11.1.19.15.39.29.56.47.51.52,1,1.07,1.5,1.6.26.27.51.53.86.68.25.1.47.3.7.47.19.14.35.32.53.47.04.03.13.06.15.04.04-.03.06-.12.05-.17-.03-.15-.09-.3-.13-.45ZM54.89,18.81c-.23.12-.31.26-.29.52.02.19.09.36.28.41.19.04.38.07.58.09.29.04.61-.01.85.2.27.24.58.3.91.29.49,0,.97.06,1.43.27.1.04.2.07.3.09.13.02.21-.04.25-.18.04-.18-.01-.32-.2-.43-.23-.13-.47-.24-.71-.36-.18-.09-.35-.17-.47-.37-.07-.12-.18-.23-.29-.31-.13-.09-.28-.16-.42-.02-.07.07-.12.17-.16.26-.11.26-.25.47-.53.47-.08,0-.2-.07-.23-.14-.06-.14-.08-.3-.09-.45,0-.27-.06-.47-.4-.44-.22.02-.45.03-.67.06-.07,0-.13.03-.15.04ZM47.13,43.77c-.16.13-.3.24-.43.37-.36.34-.6.79-.86,1.22-.24.4-.49.8-.61,1.27-.04.17-.06.31.08.43.09.08.35.06.46-.03.21-.16.28-.41.37-.65.09-.25.16-.51.27-.75.17-.34.35-.68.56-1,.26-.41.63-.63,1.1-.55.23.04.45.17.67.25.28.09.56.1.83-.03.2-.1.21-.29.03-.43-.29-.21-.61-.29-.96-.27-.33.01-.67.03-1,.07-.17.02-.34.07-.49.1h0ZM55.46,14.13c-.13.14-.26.28-.37.44-.09.13-.03.33.1.39.09.04.19.09.28.1.77.13,1.54.26,2.3.39.22.04.44.07.67.08.17,0,.27-.12.2-.26-.17-.34-.4-.62-.78-.69-.17-.03-.36.02-.53-.03-.42-.12-.84-.27-1.26-.41-.2-.07-.4-.09-.62,0h0ZM57.8,34.41c.28-.16.32-.38.32-.62,0-.22-.14-.31-.3-.37-.51-.17-1.02-.33-1.52-.49-.08-.03-.17-.05-.25-.06-.31-.05-.8.35-.83.7,0,.08.03.2.09.24.12.08.26.14.39.17.6.14,1.2.28,1.8.41.12.03.25.02.31.03h0ZM55.68,26.01s-.07.07-.09.12c-.08.15-.05.37.06.52.13.18.32.22.51.24.59.07,1.16.24,1.7.52.11.06.22.14.34.18.2.07.31.03.38-.14.21-.45,0-.86-.44-.93-.27-.04-.55-.08-.82-.16-.29-.08-.57-.23-.86-.32-.24-.08-.49-.14-.77-.03h0ZM41.83,64.35c-.08-.14-.18-.21-.29-.15-.12.07-.25.16-.31.28-.14.27-.23.57-.36.84-.22.46-.45.91-.67,1.36-.08.17-.05.33.12.4.15.07.32.11.48.13.22.02.35-.1.41-.34.04-.17.06-.35.11-.52.16-.55.33-1.1.49-1.65.03-.11.02-.24.03-.36ZM47.78,34.42s0,.05,0,.08c.04.03.08.07.13.08.44.12.88.24,1.32.34.54.12,1.06.28,1.55.55.2.11.42.23.66.13.1-.04.19-.12.28-.18-.07-.08-.13-.19-.22-.23-.5-.23-1.01-.47-1.53-.66-.51-.19-1.04-.3-1.58-.23-.2.03-.41.09-.61.14h0ZM58.93,29.35c-.1-.1-.2-.27-.35-.34-.33-.17-.68-.3-1.03-.42-.16-.05-.34-.06-.51-.05-.16,0-.26.17-.24.34.02.25.18.37.37.45.4.16.8.3,1.16.56.13.1.29.17.44.22.19.07.29-.03.27-.24-.02-.15-.06-.3-.11-.51h0ZM57.47,31.36c-.12-.24-.33-.29-.56-.31-.2-.01-.38-.07-.54-.21-.29-.27-.65-.31-1.01-.31-.18,0-.29.13-.29.29,0,.17.1.23.22.28.35.16.7.34,1.06.48.27.11.55.19.84.24.21.03.43-.18.29-.46h0ZM41.19,58.48c-.07,0-.12,0-.15.02-.39.27-.72.24-.99-.21-.09-.14-.19-.12-.27.03-.03.06-.07.13-.07.19-.01.35-.02.7-.01,1.05,0,.14.08.24.21.27.23.06.73-.13.87-.37.12-.21.23-.43.34-.66.04-.09.05-.2.07-.33h0ZM42.84,35.92c.11-.08.26-.15.37-.27.07-.07.13-.23.1-.29-.04-.08-.18-.16-.26-.15-.16.04-.32.13-.46.22-.12.07-.22.23-.34.25-.52.12-.77.59-1.07.99-.04.06-.03.23.02.29.05.06.19.07.26.03.18-.1.35-.24.52-.37.29-.23.47-.6.86-.72h0ZM62.5,52.32s-.05-.09-.08-.13c-.05-.05-.1-.09-.15-.14-.04.07-.1.13-.11.2-.03.29-.06.57-.05.86.01.38.07.76.11,1.14.02.16.05.32.1.47.02.06.13.12.19.11.06-.01.11-.11.14-.18.03-.08.02-.17.04-.26.14-.72.11-1.41-.19-2.08h0ZM58.93,23.08c.05-.07.11-.11.12-.16.04-.22.07-.44.07-.66,0-.08-.08-.17-.12-.26-.08.05-.16.09-.23.15-.09.06-.17.14-.26.18-.06.02-.14-.04-.2-.07-.2-.1-.41-.03-.5.17-.06.15.04.32.26.4.2.08.4.16.6.22.08.03.18.02.26.03h0ZM40.58,56.47c-.02.07-.05.14-.04.18.02.08.07.16.12.21.19.19.38.38.57.57.1.09.23.09.3-.03.12-.22.2-.45.16-.72-.04-.24-.08-.26-.28-.22-.16.03-.34.03-.5.04-.1,0-.19-.01-.32-.03h0ZM55.46,21.89s.03,0,.04.01c.03.05.05.1.09.14.25.24.54.32.87.31.13,0,.25-.06.25-.2,0-.1-.08-.23-.16-.28-.23-.14-.47-.26-.72-.36-.09-.03-.25,0-.31.06-.06.06-.04.22-.06.33h0ZM53.51,35.35s-.06-.07-.11-.11c-.18-.15-.38-.09-.55,0-.25.14-.25.31,0,.47.12.08.28.13.42.13.24,0,.36-.22.25-.49h0ZM58.85,24.66c-.09-.19-.45-.27-.59-.13-.07.08-.12.18-.04.29.07.09.15.18.24.26.1.1.22.14.33.01.11-.13.13-.28.06-.44ZM63.1,56.93c-.22.33-.19.71-.24,1.06-.02.13-.05.32.11.42.23-.26.32-1.16.14-1.48ZM56.42,36.08c-.12.07-.17.17-.13.31.04.11.23.15.34.09.1-.06.18-.25.14-.34-.05-.1-.23-.13-.35-.07ZM55.76,28.84c.11-.06.17-.24.11-.35-.06-.11-.14-.19-.27-.12-.1.05-.16.3-.11.4.06.12.16.13.26.07Z"/>
        <path id="Vector_2" class="st0" d="M31.49,41.24c-.91.36-1.78.32-2.6-.31-.98-.76-1.8-1.71-2.66-2.63-.68-.73-1.24-1.57-1.86-2.34-.42-.52-.85-1.02-1.27-1.53-.68-.81-1.42-1.54-2.2-2.23-.72-.63-1.43-1.26-2.13-1.92-.54-.5-1.06-1.03-1.56-1.56-.38-.4-.71-.85-.92-1.38-.27-.7-.37-1.42-.19-2.18.17-.76.58-1.33,1.19-1.73.71-.48,1.49-.56,2.28-.39,1.1.24,1.94.94,2.62,1.89.14.2.2.48.33.71.18.33.34.69.57.97.51.62,1.06,1.19,1.59,1.79.54.61,1.09,1.21,1.59,1.85.77.98,1.57,1.91,2.42,2.81.84.9,1.67,1.82,2.48,2.75.34.38.66.79.93,1.23.28.46.44.98.37,1.57-.07.59-.06,1.18-.25,1.75-.11.33-.38.74-.72.89h0ZM21.97,26.51c-.09-.16-.17-.33-.27-.49-.15-.22-.28-.22-.39.04-.09.21-.14.45-.19.68-.08.36-.19.73-.2,1.09-.03.67-.11,1.31-.28,1.96-.16.61-.13.9.38,1.23.21.14.33.09.4-.16.1-.33.2-.66.29-.99.04-.13.07-.27.08-.41.03-.53.05-1.06.25-1.56.19-.47.22-.95-.06-1.4h0ZM20.67,24.75c-.12-.25-.27-.38-.46-.43-.15-.04-.27-.01-.37.17-.26.47-.35,1.01-.49,1.52-.22.75-.39,1.52-.6,2.27-.13.46.02.87.42,1.09.18.1.36.02.44-.21.06-.2.12-.4.17-.6.06-.25.14-.5.15-.76.02-.36.08-.7.23-1.02.09-.19.18-.39.24-.59.11-.37.19-.74.28-1.12.02-.12,0-.24.01-.31h0ZM17.11,27.01s.03.1.06.14c.11.14.18.38.38.36.21-.02.26-.24.32-.43.25-.77.49-1.54.73-2.31.04-.11.07-.23.08-.35.04-.29-.12-.46-.38-.42-.3.04-.56.19-.79.4-.31.27-.45.63-.51,1.04-.08.53-.12,1.06.1,1.57ZM23.82,28.84c-.17-.17-.33-.34-.5-.48-.22-.19-.38-.14-.45.16-.12.44-.22.88-.32,1.33-.12.57-.23,1.13-.33,1.7-.06.35,0,.65.29.87.14.1.27.09.36-.07.06-.11.08-.25.12-.37.27-.91.54-1.81.81-2.72.03-.12.02-.25.03-.4h0ZM30.85,36.85c-.09-.11-.27-.33-.47-.53-.17-.17-.29-.12-.36.12-.06.22-.09.46-.17.68-.19.5-.1,1.07-.35,1.56,0,0,0,.01,0,.02-.01.4-.03.8-.03,1.21,0,.27.22.52.46.55.19.03.36-.07.42-.27.07-.24.13-.49.18-.74.05-.24-.04-.42-.23-.56-.09-.06-.17-.13-.24-.21-.22-.25-.18-.47.11-.61.08-.04.17-.06.26-.08.39-.09.64-.62.41-1.14h0ZM25.8,36.34c.11.13.2.27.32.38.14.13.25.11.35-.05.17-.29.2-.61.19-.94-.01-.37-.01-.75.01-1.12.01-.19.11-.36.14-.55.04-.29.06-.58.09-.88.02-.17.07-.33.07-.5s-.14-.26-.26-.28c-.07,0-.19.09-.23.17-.15.28-.19.61-.21.93-.05.63-.25,1.21-.43,1.8-.1.33-.17.67-.04,1.04ZM25.35,30.54c-.13-.14-.24-.29-.37-.4-.15-.14-.28-.11-.37.07-.09.19-.16.38-.2.58-.08.42-.14.84-.2,1.26-.04.24.04.41.22.43.26.03.61-.2.68-.47.1-.35.18-.71.25-1.07.02-.13,0-.27-.01-.41ZM28.87,34.65c-.1-.15-.19-.3-.36-.28-.17.02-.17.21-.2.34-.03.09-.04.2-.05.3-.02.17-.05.35-.06.52,0,.13.05.26.17.26.1,0,.25-.07.29-.15.11-.23.17-.48.24-.73.02-.08-.01-.18-.02-.26h0ZM28.36,37.96c-.12-.27-.19-.31-.34-.23-.19.1-.37.41-.35.61.02.22.26.52.46.54.07,0,.19-.07.22-.14.12-.28.07-.56,0-.78h0Z"/>
        <path id="Vector_3" class="st0" d="M30.4,17.01c.14.51.27.93.39,1.36.12.44.2.91.53,1.23.15.14.35.27.54.32.45.12.84.36,1.18.69.62.59,1.08,1.32,1.39,2.15.3.8.49,1.63.33,2.5-.16.82-.53,1.5-1.26,1.86-.48.24-1.01.25-1.53.15-.77-.15-1.46-.49-2.07-1.01-.52-.44-.94-.98-1.31-1.57-.69-1.11-1.38-2.23-2.23-3.21-.4-.45-.79-.92-1.16-1.39-.39-.5-.73-1.04-.95-1.65-.32-.89-.4-1.8-.17-2.74.1-.43.23-.83.46-1.2.33-.53.81-.78,1.38-.82.46-.03.93,0,1.34.22.36.19.71.45,1.02.73.46.42.89.89,1.31,1.36.3.34.56.71.8,1.02h0ZM31.08,20.82s-.08.06-.1.1c-.16.26-.35.5-.48.78-.3.66-.64,1.28-1.12,1.8-.14.16-.22.38-.07.61.09.14.18.3.27.44.09.14.21.31.37.24.11-.05.19-.22.25-.36.22-.51.42-1.03.65-1.53.15-.33.35-.63.54-.94.13-.2.28-.38.42-.58.08-.11.14-.24.04-.36-.15-.19-.57-.32-.77-.2h0ZM25.85,14.7c-.07.09-.17.18-.22.3-.07.18-.12.37-.16.55-.08.42-.17.84-.4,1.21-.07.11-.14.23-.16.35-.07.33.03.64.19.92.09.16.24.16.34,0,.21-.33.41-.67.6-1.01.19-.35.33-.72.59-1.02.2-.23.31-.52.34-.84.01-.12-.05-.3-.13-.36-.29-.21-.62-.2-.98-.11ZM33.24,22.36s-.02-.05-.03-.07c-.1-.19-.2-.38-.43-.4-.21-.01-.32.17-.41.35-.12.22-.23.46-.38.65-.25.31-.39.67-.51,1.05-.1.28-.23.54-.33.82-.1.28-.25.56-.18.88.02.09.12.2.2.24.06.03.19-.04.23-.1.13-.21.23-.45.35-.67.22-.39.42-.78.66-1.14.22-.32.5-.6.75-.9.16-.21.23-.44.08-.68h0ZM27.71,15.71c-.28.19-.52.43-.64.79-.06.19-.11.38-.19.55-.23.5-.45.99-.41,1.58.01.16-.1.34-.15.51-.05.17-.1.33-.13.5,0,.05.07.14.12.17.04.02.13-.03.16-.08.05-.1.07-.22.09-.34.05-.19.05-.4.14-.56.14-.24.33-.45.5-.67.39-.5.83-.94,1.12-1.52.21-.41.17-.59-.23-.91-.13-.1-.25-.12-.39-.02h0ZM27.62,20.78s.03.01.04.02c.29-.33.6-.63.75-1.09.17-.51.5-.92.9-1.23.37-.28.48-.67.23-1.07-.19-.3-.38-.34-.63-.03-.07.09-.12.2-.15.31-.2.7-.51,1.34-.81,2-.16.34-.23.73-.33,1.1ZM33.13,26.22c.06-.05.13-.1.2-.16.36-.3.57-.69.58-1.19,0-.1-.06-.24-.13-.28-.07-.03-.2.02-.27.08-.27.25-.52.53-.78.79-.17.16-.35.3-.51.47-.14.16-.1.3.09.37.28.11.54.02.82-.09h0ZM30.28,19.76c-.09-.2-.29-.25-.41-.08-.15.21-.28.43-.39.67-.08.18-.13.39-.16.59-.01.07.04.22.08.23.07.02.19-.02.24-.08.21-.26.41-.52.59-.81.09-.15.15-.33.06-.52h0Z"/>
        <path id="Vector_4" class="st0" d="M39.93,20c-.22-.51-.46-1.01-.67-1.52-.22-.52-.41-1.04-.62-1.56-.31-.77-.64-1.52-.93-2.29-.29-.74-.52-1.51-.51-2.34,0-.64.15-1.24.42-1.81.19-.39.41-.74.73-1.01.5-.43,1.07-.56,1.69-.4.54.14.97.48,1.36.89.53.54,1,1.14,1.43,1.78.23.34.38.73.49,1.15.07.26.17.51.25.77.14.42.27.84.4,1.25.09.27.19.53.27.8.13.39.24.78.37,1.17.1.33.21.66.31.99.15.48.29.97.43,1.46.13.43.21.88.2,1.33,0,.88-.34,1.56-1.04,2.03-.96.64-1.89.51-2.8-.12-.52-.35-.93-.82-1.24-1.39-.21-.38-.41-.76-.61-1.13.02,0,.04-.02.05-.03ZM44.03,17.89c-.09-.29-.28-.41-.54-.4-.22,0-.44.06-.67.08-.56.05-1.1.24-1.67.22-.22,0-.44.13-.65.24-.15.08-.29.24-.24.45.05.2.1.41.2.58.1.17.26.26.46.2.15-.04.3-.07.46-.09.32-.05.64-.08.95-.13.22-.04.43-.13.65-.15.3-.04.61-.03.91-.05.23-.02.32-.14.27-.4-.03-.19-.1-.37-.14-.56h0ZM39.45,16.58s.01,0,.01,0c.01.03.02.06.04.09.15.34.37.49.7.36.33-.14.65-.15.98-.1.28.04.55-.02.8-.18.14-.09.29-.18.45-.21.25-.05.51-.06.77-.09.19-.02.28-.18.17-.34-.13-.19-.29-.36-.45-.51-.08-.07-.19-.13-.29-.14-.18-.01-.37.02-.55.03-.51.05-1.03-.05-1.54.14-.27.11-.59.09-.88.14-.25.04-.35.17-.32.44.02.13.07.25.11.38h0ZM41.95,21.1c.06.25.22.42.45.42.52,0,1.04-.01,1.56-.07.23-.03.42-.2.46-.51.02-.12.07-.24.12-.35.09-.18.12-.35,0-.52-.13-.21-.33-.18-.52-.15-.72.08-1.45.17-2.17.25-.14.02-.29,0-.43.04-.08.02-.14.12-.22.18.06.08.11.16.18.23.02.03.06.03.1.04.23.04.39.18.45.43h0ZM41.49,11.39c-.22-.22-.41-.47-.65-.66-.23-.18-.44-.09-.62.16-.07.09-.13.19-.2.28-.12.16-.3.18-.48.1-.21-.09-.43-.18-.66-.22-.32-.07-.5.04-.65.35-.04.09-.07.2-.08.31-.05.37.25.68.58.57.27-.09.52-.25.79-.36.14-.06.29-.08.43-.08.44-.02.88,0,1.32-.03.21-.01.27-.18.22-.41h0ZM42.5,13.14c-.14-.29-.32-.4-.6-.3-.22.08-.44.18-.64.3-.24.14-.26.34-.09.57.23.32.74.47,1.12.33.28-.1.36-.23.31-.52-.02-.13-.07-.25-.1-.38h0ZM39.49,14.54c.21-.09.31-.28.4-.49.13-.29-.05-.48-.23-.48-.33,0-.65,0-.98.04-.2.02-.26.21-.18.41.1.25.29.38.5.51.17.11.34.13.5.01Z"/>
        <path id="Vector_5" class="st0" d="M18.61,58.26c.81-.39,1.65-.6,2.53-.56.65.03,1.28.19,1.87.52.56.31,1.09.68,1.6,1.09.89.72,1.78,1.44,2.67,2.16.33.27.56.62.65,1.06.12.62-.19,1.44-.76,1.74-.63.32-1.29.51-1.97.65-.65.14-1.31.18-1.97.15-.61-.03-1.21-.11-1.79-.28-.42-.13-.85-.25-1.25-.42-.62-.27-1.23-.58-1.84-.89-.35-.18-.71-.37-1.04-.6-.61-.43-.97-1.15-.78-1.97.19-.83.63-1.48,1.22-2.01.27-.24.57-.42.86-.63h0ZM20.39,63.18c.04-.08.14-.21.2-.37.18-.44.38-.87.51-1.33.2-.74.35-1.51.52-2.26.07-.29-.05-.5-.32-.54-.14-.02-.29-.02-.43-.02-.28,0-.45.18-.51.45-.07.31-.16.62-.24.94-.05.2-.1.4-.14.61-.08.39-.15.78-.21,1.17-.05.3-.1.6-.11.89-.01.4.35.67.73.47h0ZM22.49,63.94c.08-.09.19-.17.22-.28.21-.63.44-1.26.6-1.91.12-.51.15-1.05.36-1.54.11-.26.03-.45-.2-.61-.11-.08-.23-.15-.34-.22-.19-.11-.34-.09-.44.11-.07.16-.08.36-.1.54-.02.15.03.31-.01.45-.13.42-.27.84-.46,1.24-.26.54-.45,1.1-.59,1.68-.03.13-.01.25.08.36.13.14.69.29.87.16h0ZM18.57,59.43s-.01-.02-.02-.02c-.15.13-.29.26-.44.39-.25.24-.37.52-.31.9.03.21-.01.44-.06.65-.12.52-.03.77.43.96.17.08.35.02.43-.18.16-.4.36-.79.45-1.22.08-.4.05-.82.02-1.23-.03-.35-.2-.42-.49-.27,0,0-.01,0-.02,0h0ZM25.6,61.35h-.05c-.06-.21-.41-.48-.6-.49-.07,0-.2.08-.22.15-.15.46-.29.93-.43,1.4-.03.09-.05.21-.03.3.08.34.15.68.11,1.04-.02.2.17.3.35.22.16-.07.24-.2.29-.36.19-.58.38-1.16.55-1.75.05-.16.02-.34.02-.51h0ZM26.7,63.39c.22-.12.35-.33.32-.51-.02-.09-.08-.21-.14-.25-.05-.03-.17.05-.22.11-.08.1-.14.23-.17.36-.02.08,0,.19.05.25.04.05.14.03.16.03Z"/>
        <path id="Vector_6" class="st0" d="M33.61,31.93c-.31-.82-.57-1.58-.65-2.39-.08-.89.21-1.63.87-2.15.53-.41,1.15-.48,1.78-.32.86.22,1.54.76,2.16,1.4.39.4.74.84,1.09,1.28.2.26.37.55.52.84.14.27.27.56.38.85.17.48.2.98.08,1.48-.18.79-.64,1.34-1.31,1.67-.53.26-1.09.3-1.66.16-.69-.17-1.32-.47-1.87-.96-.39-.35-.73-.74-1-1.21-.14-.24-.29-.49-.39-.68h0ZM38.15,30.29c-.12-.13-.24-.27-.36-.39-.13-.13-.31-.11-.42-.01-.32.28-.65.57-.91.91-.35.47-.63,1-.92,1.52-.14.24-.17.52.04.75.31.33.58.42.82-.01.45-.82.97-1.58,1.62-2.23.18-.18.2-.28.13-.53h0ZM34.22,31.16c.09.07.19.19.28.19.09,0,.2-.1.26-.19.32-.45.61-.93.94-1.37.2-.27.45-.5.67-.75.15-.17.19-.32.08-.45-.29-.32-.65-.5-.99-.03-.3.42-.63.81-.95,1.22-.39.51-.46.79-.28,1.39h0ZM37.66,33.69c.2.16.39.09.44-.14-.24-.11-.33-.08-.44.14Z"/>
        <path id="Vector_7" class="st0" d="M44.73,29.74c-.34-.74-.41-1.43-.32-2.15.04-.33.23-.59.42-.84.29-.38.65-.65,1.09-.76.34-.09.63.05.91.25.59.43.9,1.04,1.02,1.79.08.49.1.97.03,1.46-.15,1.03-1.04,1.64-1.87,1.38-.61-.19-1.09-.55-1.28-1.14h0ZM46.43,28.29c.34-.18.44-.54.24-.79-.09-.12-.25-.2-.4-.24-.29-.09-.59-.13-.82.18-.23.31-.27.67.08.83.31.14.63.1.89.02h0Z"/>
        <path id="Vector_8" class="st0" d="M38.49,54.06c.11.25-.01.56-.27.71-.2.12-.41.04-.51-.17-.13-.27,0-.58.24-.71.2-.11.44-.03.53.18h0Z"/>
        <path id="Vector_9" class="st0" d="M40.7,44.65c.09.21,0,.59-.19.71-.18.13-.48-.09-.46-.37.01-.15.08-.32.16-.44.13-.18.4-.11.49.09Z"/>
        <path id="Vector_10" class="st0" d="M39.81,47.65c-.14.08-.32,0-.33-.17-.01-.24.01-.46.18-.66.1-.11.18-.07.24-.02.18.17.14.79-.09.84Z"/>
        <path id="Vector_11" class="st0" d="M36.8,47.89c-.31.17-.58.03-.58-.27,0-.24.03-.51.13-.72.16-.34.22-.7.26-1.07.05-.44.1-.87.18-1.31.02-.13.08-.28.17-.36.2-.18.48-.01.55.28.08.33.04.65-.09.94-.17.39-.24.8-.28,1.22-.04.32-.07.64-.14.95-.03.14-.15.26-.19.32h0Z"/>
        <path id="Vector_12" class="st0" d="M38.65,39.73s.02.04.03.07c.06.21-.19,1.02-.38,1.12-.08.04-.22.06-.28,0-.08-.07-.17-.21-.17-.32.01-.36.1-.7.35-.96.16-.17.35-.13.44.09Z"/>
        <path id="Vector_13" class="st0" d="M37.8,41.91c.07.15.02.35-.08.39-.1.03-.21.04-.27-.1-.07-.15-.04-.29.09-.36.12-.07.21,0,.26.07h0Z"/>
        <path id="Vector_14" class="st0" d="M34.56,43.38c.1.23.02.61-.14.7-.14.07-.39-.04-.47-.22-.09-.21.04-.55.25-.64.14-.06.29,0,.35.16Z"/>
        <path id="Vector_15" class="st0" d="M41.73,54.23c.11.25.04.49-.2.61-.19.1-.24.09-.34-.13-.11-.25-.04-.62.14-.71.15-.08.29,0,.39.23h0Z"/>
      </g>
    </g>
  </g>
</svg>