<?xml version="1.0" encoding="UTF-8"?>
<svg id="Layer_1" xmlns="http://www.w3.org/2000/svg" version="1.1" viewBox="0 0 25 25">
  <defs>
    <style>
      .st0 {
        fill: none;
      }

      .st1 {
        fill: currentColor;
      }
    </style>
  </defs>
  <g id="Group_7466">
    <g id="slAD6w.tif">
      <path id="Vector" class="st1" d="M0,13.09c.01-.06.03-.13.03-.19.04-.71.15-1.41.32-2.09.39-1.55,1.08-2.95,2.08-4.19,1.18-1.48,2.65-2.58,4.4-3.28.7-.28,1.43-.48,2.17-.61.39-.07.78-.11,1.18-.13.43-.02.86-.02,1.28,0,1.86.13,3.58.72,5.14,1.76.04.02.07.05.12.08.13-1.25.59-2.35,1.34-3.32.29-.38.87-1.01,1.06-1.13-.01.02-.02.04-.03.05-.45.56-.76,1.19-.97,1.88-.15.48-.24.96-.28,1.46-.04.42-.04.84,0,1.27.03.27.08.53.15.79,0,.02.01.04.03.08.02-.04.03-.07.04-.1.26-.66.6-1.27,1.05-1.81.5-.6,1.09-1.08,1.76-1.47.32-.19.65-.36.99-.5.02,0,.04-.01.05-.02,0,0,.01,0,.03.02-.01,0-.02,0-.03.01-.61.37-1.11.87-1.53,1.45-.53.74-.92,1.56-1.13,2.45-.08.34-.13.68-.13,1.03v.08h.02s.04-.05.05-.08c.4-.69.93-1.24,1.59-1.67.46-.3.96-.52,1.49-.68.45-.13.9-.23,1.36-.29.29-.03.59-.06.88-.08.03,0,.05,0,.08.01-.11.02-.23.05-.34.08-.89.22-1.68.61-2.38,1.21-.86.75-1.41,1.7-1.66,2.83-.02.08-.03.18-.05.26-.01.05,0,.09.02.13.22.41.41.84.58,1.29.24.66.43,1.35.55,2.05.06.4.11.79.13,1.19.02.4.03.79,0,1.18-.09,1.87-.61,3.61-1.57,5.2-1.33,2.19-3.19,3.73-5.57,4.61-.6.22-1.23.38-1.86.48-.35.06-.7.1-1.06.12-.02,0-.04,0-.06.01h-1.17s-.05-.01-.07-.01c-.19-.02-.38-.03-.57-.05-.54-.06-1.06-.17-1.59-.31-3.29-.91-5.99-3.42-7.21-6.68-.39-1.04-.62-2.12-.68-3.23,0-.07-.02-.14-.03-.21v-.93h0ZM20.89,13.84c0-5.71-4.5-10.39-10.15-10.39S.59,8.12.58,13.82c0,5.69,4.51,10.37,10.15,10.38,5.64,0,10.16-4.67,10.15-10.36Z"/>
      <path id="Vector_2" class="st1" d="M10.73,23.97c-5.54-.01-9.94-4.6-9.94-10.13S5.25,3.69,10.73,3.69s9.93,4.56,9.92,10.16c0,5.53-4.38,10.11-9.92,10.12h0ZM10.73,5c-5.1,0-9.14,4.24-9.14,9.34s4.09,9.33,9.13,9.33c5.03,0,9.14-4.18,9.15-9.33,0-5.1-4.05-9.34-9.14-9.35h0Z"/>
      <path id="Vector_3" class="st1" d="M10.72,19.45c-3.23-.01-5.76-2.71-5.75-5.91.01-3.26,2.59-5.89,5.77-5.88,3.19,0,5.77,2.65,5.77,5.91,0,3.2-2.54,5.88-5.78,5.88ZM15.4,14.28c0-.1-.01-.29-.03-.48-.06-.53-.21-1.03-.43-1.51-.77-1.64-2.42-2.7-4.24-2.68-.07,0-.11-.02-.16-.07-.58-.65-1.31-.9-2.15-.71-1.29.3-1.97,1.65-1.59,2.86.02.05.01.09-.02.14-.41.66-.65,1.38-.71,2.17-.04.53,0,1.05.13,1.56.5,1.97,2.18,3.44,4.22,3.59.58.04,1.15-.03,1.7-.21,1.88-.6,3.27-2.38,3.28-4.65h0Z"/>
      <path id="Vector_4" class="st1" d="M6.92,11.02c0-1.12.87-2.01,1.96-2.01s1.97.88,1.97,2.01-.89,2.02-1.97,2.01c-1.08,0-1.96-.9-1.96-2h0Z"/>
      <path id="Vector_5" class="st1" d="M11.58,16.67c0-.78.62-1.4,1.38-1.4s1.38.63,1.38,1.41-.63,1.42-1.38,1.41c-.83,0-1.4-.71-1.39-1.42h0Z"/>
      <path id="Vector_6" class="st1" d="M10.35,12.69c.09-.11.18-.2.26-.3.02-.03.05-.03.08-.03.26,0,.5.07.71.22.37.27.57.75.47,1.2-.11.5-.42.82-.91.93-.65.14-1.29-.34-1.37-1.02-.02-.18,0-.35.05-.52.01-.04.04-.07.08-.08.09-.04.18-.09.27-.13.01,0,.03-.01.05-.02-.18.23-.25.5-.21.78.04.23.15.42.33.56.34.28.83.28,1.17,0,.34-.29.43-.78.21-1.18-.19-.35-.65-.62-1.19-.4h.01Z"/>
      <path id="Vector_7" class="st1" d="M10.72,14.21c-.36,0-.65-.3-.65-.66s.29-.66.65-.66.65.3.65.67-.29.66-.65.66h0ZM10.38,13.55c0,.19.15.35.34.36.19,0,.35-.16.35-.36,0-.19-.15-.35-.35-.35s-.34.15-.34.35Z"/>
      <path id="Vector_8" class="st1" d="M10.89,13.56c0,.09-.08.16-.17.16s-.16-.08-.15-.17c0-.09.07-.16.16-.15.09,0,.16.07.16.17h0Z"/>
    </g>
    <path id="Ellipse_3160" class="st0" d="M20.97,13.5c0,6.28-4.63,10.6-10.44,10.6C5.25,24.1.5,19.3.5,13.5S5.23,3.4,10.53,3.4c5.61,0,10.44,4.54,10.44,10.1Z"/>
  </g>
</svg>