<?xml version="1.0" encoding="UTF-8"?>
<svg id="Layer_1" xmlns="http://www.w3.org/2000/svg" version="1.1" viewBox="0 0 80 80">
  <defs>
    <style>
    .st1 { fill: currentColor; }

      .st0 {
        fill: currentColor;
      }
    </style>
  </defs>
  <g id="EGG-ROBOT">
    <path id="Vector" class="st0" d="M58.98,33.63c.22-.59.35-1.23.35-1.91v-8.29c0-2.09-.73-4.06-2.07-5.54l-.15-.17,3.49-3.87c.86-.95,1.33-2.22,1.33-3.56s-.47-2.61-1.33-3.56l-1.5-1.67c-1.77-1.96-4.65-1.96-6.41,0l-3.49,3.87-.23-.26c-1.33-1.48-3.11-2.3-4.99-2.3h-10.82c-2.35,0-4.56.96-6.28,2.71l-3.35-3.73c-1.77-1.96-4.64-1.96-6.41,0l-1.5,1.67c-1.77,1.96-1.77,5.16,0,7.12l3.35,3.72h0c-1.33,1.49-2.07,3.46-2.07,5.55v8.29c0,.67.12,1.31.35,1.91-2.13.31-3.77,2.34-3.77,4.78v2.78c0,2.51,1.74,4.58,3.95,4.8l-.65.72c-.82.91-1.27,2.12-1.27,3.41s.45,2.5,1.27,3.41l5.97,6.63c1.69,1.88,4.45,1.88,6.14,0l1.77-1.97c.82-.91,1.27-2.12,1.27-3.41,0-.76-.16-1.5-.46-2.16l5.96-6.62h1.37l5.96,6.62c-.3.66-.46,1.4-.46,2.16,0,1.29.45,2.5,1.27,3.41l1.77,1.97c.82.91,1.91,1.41,3.07,1.41s2.25-.5,3.07-1.41l5.97-6.63c1.69-1.88,1.69-4.94,0-6.82l-.65-.72c2.21-.22,3.95-2.29,3.95-4.8v-2.78c0-2.44-1.65-4.47-3.77-4.78h0v.02ZM45.37,27.01c-.12,1.09-.93,1.98-1.91,2.12-.7.1-1.39-.16-1.88-.7s-.72-1.3-.63-2.08c.12-1.09.93-1.98,1.91-2.12.1-.01.2-.02.29-.02.6,0,1.16.25,1.58.72.49.55.72,1.3.63,2.08h0ZM42.31,19.36c-1.68.24-3.16,1.16-4.2,2.52-.11-.14-.23-.29-.35-.42-1.15-1.28-2.65-2.02-4.25-2.14l.46-.51h8.31l.45.51c-.14.01-.27.02-.41.04h-.01ZM35.27,27.01c-.12,1.09-.93,1.98-1.91,2.12-.7.1-1.39-.16-1.88-.7s-.72-1.3-.63-2.08c.12-1.09.93-1.98,1.91-2.12.1-.01.2-.02.29-.02.6,0,1.16.25,1.58.72.49.55.72,1.3.63,2.08h0ZM28.08,31.72v-.18c.09.12.19.23.29.34.69.77,1.51,1.34,2.4,1.71h-3.02c.21-.58.33-1.21.33-1.87ZM38.12,31.46c.11.14.23.29.35.42.69.77,1.51,1.34,2.4,1.71h-5.5c1.08-.44,2.02-1.18,2.75-2.13ZM48.14,31.56v.17c0,.65.11,1.28.33,1.87h-3c1.04-.42,1.96-1.13,2.68-2.03h-.01ZM18.73,10.7s-.05-.14,0-.2l1.5-1.67c.05-.06.13-.06.18,0l4.49,4.99c1.09,1.21,2.86,1.21,3.95,0l.87-.96c.92-1.02,2.14-1.58,3.44-1.58h10.82c.71,0,1.37.31,1.87.86l1.37,1.53c1.09,1.21,2.86,1.21,3.95,0l4.63-5.14c.05-.05.13-.05.18,0l1.5,1.67s.05.14,0,.2l-4.63,5.14c-1.09,1.21-1.09,3.18,0,4.39l1.29,1.43c.5.56.78,1.3.78,2.08v8.3h-2.38v-6.39c0-1.31-.46-2.54-1.29-3.47l-5.87-6.52c-.83-.93-1.94-1.44-3.12-1.44h-8.3c-1.18,0-2.29.51-3.12,1.44l-5.87,6.52c-.83.93-1.29,2.16-1.3,3.47v6.39h-2.38v-8.3c0-.79.28-1.53.78-2.08l1.15-1.28c.53-.59.82-1.37.82-2.19s-.29-1.61-.82-2.19l-4.49-4.99h0ZM58.35,41.13h-8.08c-1.06,0-2,.7-2.4,1.78-.4,1.08-.18,2.32.56,3.15l2.25,2.5c.49.55,1.14.85,1.84.85s1.35-.3,1.84-.85l.26-.29,1.68,1.87-5.88,6.53-1.68-1.87.26-.29c.49-.55.76-1.27.76-2.04s-.27-1.5-.76-2.04l-7.61-8.45c-.49-.55-1.15-.85-1.84-.85h-2.86c-.7,0-1.35.3-1.84.85l-7.61,8.45c-.49.55-.76,1.27-.76,2.04s.27,1.5.76,2.04l.26.29-1.68,1.87-5.88-6.53,1.68-1.87.26.29c.49.55,1.14.85,1.84.85s1.35-.3,1.84-.85l2.25-2.5c.75-.83.97-2.07.56-3.15-.4-1.08-1.35-1.78-2.4-1.78h-8.08v-2.64h40.48v2.64h-.02Z"/>
  </g>
</svg>